%TF.GenerationSoftware,KiCad,Pcbnew,7.0.8*%
%TF.CreationDate,2023-11-23T10:38:48-06:00*%
%TF.ProjectId,calcvox-rounded,63616c63-766f-4782-9d72-6f756e646564,rev?*%
%TF.SameCoordinates,Original*%
%TF.FileFunction,Copper,L2,Bot*%
%TF.FilePolarity,Positive*%
%FSLAX46Y46*%
G04 Gerber Fmt 4.6, Leading zero omitted, Abs format (unit mm)*
G04 Created by KiCad (PCBNEW 7.0.8) date 2023-11-23 10:38:48*
%MOMM*%
%LPD*%
G01*
G04 APERTURE LIST*
%TA.AperFunction,ComponentPad*%
%ADD10O,2.200000X1.200000*%
%TD*%
%TA.AperFunction,ComponentPad*%
%ADD11O,1.200000X2.200000*%
%TD*%
%TA.AperFunction,ComponentPad*%
%ADD12O,1.600000X2.300000*%
%TD*%
%TA.AperFunction,ComponentPad*%
%ADD13O,1.600000X2.500000*%
%TD*%
%TA.AperFunction,ComponentPad*%
%ADD14R,1.800000X1.800000*%
%TD*%
%TA.AperFunction,ComponentPad*%
%ADD15O,1.800000X1.800000*%
%TD*%
%TA.AperFunction,ComponentPad*%
%ADD16C,2.000000*%
%TD*%
%TA.AperFunction,ComponentPad*%
%ADD17C,1.524000*%
%TD*%
%TA.AperFunction,ComponentPad*%
%ADD18C,1.600000*%
%TD*%
%TA.AperFunction,ComponentPad*%
%ADD19O,1.600000X1.600000*%
%TD*%
%TA.AperFunction,ComponentPad*%
%ADD20C,3.000000*%
%TD*%
%TA.AperFunction,ComponentPad*%
%ADD21C,1.800000*%
%TD*%
%TA.AperFunction,ComponentPad*%
%ADD22O,2.200000X3.500000*%
%TD*%
%TA.AperFunction,ComponentPad*%
%ADD23R,1.500000X2.500000*%
%TD*%
%TA.AperFunction,ComponentPad*%
%ADD24O,1.500000X2.500000*%
%TD*%
%TA.AperFunction,ViaPad*%
%ADD25C,0.800000*%
%TD*%
%TA.AperFunction,Conductor*%
%ADD26C,0.250000*%
%TD*%
G04 APERTURE END LIST*
D10*
%TO.P,J1,G*%
%TO.N,Net-(J1-PadG)*%
X246380000Y-351830000D03*
D11*
%TO.P,J1,S*%
%TO.N,Net-(J1-PadS)*%
X241380000Y-346830000D03*
D12*
%TO.P,J1,SN*%
%TO.N,Net-(J1-PadSN)*%
X243880000Y-346830000D03*
D11*
%TO.P,J1,T*%
%TO.N,Net-(J1-PadT)*%
X251380000Y-346830000D03*
D13*
%TO.P,J1,TN*%
%TO.N,Net-(J1-PadTN)*%
X248880000Y-346830000D03*
%TD*%
D14*
%TO.P,D40,1,K*%
%TO.N,R8*%
X290830000Y-146050000D03*
D15*
%TO.P,D40,2,A*%
%TO.N,Net-(D40-A)*%
X290830000Y-158750000D03*
%TD*%
D14*
%TO.P,D53,1,K*%
%TO.N,R5*%
X219710000Y-231140000D03*
D15*
%TO.P,D53,2,A*%
%TO.N,Net-(D53-A)*%
X232410000Y-231140000D03*
%TD*%
D16*
%TO.P,SW5,1,1*%
%TO.N,C1*%
X356180000Y-236220000D03*
X356180000Y-229720000D03*
%TO.P,SW5,2,2*%
%TO.N,Net-(D4-A)*%
X360680000Y-236220000D03*
X360680000Y-229720000D03*
%TD*%
D14*
%TO.P,D49,1,K*%
%TO.N,R1*%
X252730000Y-279400000D03*
D15*
%TO.P,D49,2,A*%
%TO.N,Net-(D49-A)*%
X252730000Y-292100000D03*
%TD*%
D17*
%TO.P,LS1,1,1*%
%TO.N,Net-(LS1-Pad1)*%
X271780000Y-349250000D03*
%TO.P,LS1,2,2*%
%TO.N,Net-(J1-PadG)*%
X276860000Y-349250000D03*
%TD*%
D16*
%TO.P,SW55,1,1*%
%TO.N,C7*%
X251460000Y-224790000D03*
X251460000Y-218290000D03*
%TO.P,SW55,2,2*%
%TO.N,Net-(D54-A)*%
X255960000Y-224790000D03*
X255960000Y-218290000D03*
%TD*%
D14*
%TO.P,D64,1,K*%
%TO.N,R8*%
X231140000Y-147320000D03*
D15*
%TO.P,D64,2,A*%
%TO.N,Net-(D64-A)*%
X231140000Y-160020000D03*
%TD*%
D14*
%TO.P,D61,1,K*%
%TO.N,R5*%
X234950000Y-181610000D03*
D15*
%TO.P,D61,2,A*%
%TO.N,Net-(D61-A)*%
X234950000Y-194310000D03*
%TD*%
D14*
%TO.P,D2,1,K*%
%TO.N,R2*%
X367030000Y-261620000D03*
D15*
%TO.P,D2,2,A*%
%TO.N,Net-(D2-A)*%
X367030000Y-274320000D03*
%TD*%
D14*
%TO.P,D47,1,K*%
%TO.N,R7*%
X271780000Y-165100000D03*
D15*
%TO.P,D47,2,A*%
%TO.N,Net-(D47-A)*%
X271780000Y-177800000D03*
%TD*%
D14*
%TO.P,D43,1,K*%
%TO.N,R3*%
X271780000Y-242570000D03*
D15*
%TO.P,D43,2,A*%
%TO.N,Net-(D43-A)*%
X271780000Y-255270000D03*
%TD*%
D14*
%TO.P,D37,1,K*%
%TO.N,R5*%
X290830000Y-203200000D03*
D15*
%TO.P,D37,2,A*%
%TO.N,Net-(D37-A)*%
X290830000Y-215900000D03*
%TD*%
D16*
%TO.P,SW52,1,1*%
%TO.N,C7*%
X241590000Y-255980000D03*
X241590000Y-249480000D03*
%TO.P,SW52,2,2*%
%TO.N,Net-(D51-A)*%
X246090000Y-255980000D03*
X246090000Y-249480000D03*
%TD*%
D14*
%TO.P,D6,1,K*%
%TO.N,R6*%
X367030000Y-184150000D03*
D15*
%TO.P,D6,2,A*%
%TO.N,Net-(D6-A)*%
X367030000Y-196850000D03*
%TD*%
D14*
%TO.P,D44,1,K*%
%TO.N,R4*%
X271780000Y-223520000D03*
D15*
%TO.P,D44,2,A*%
%TO.N,Net-(D44-A)*%
X271780000Y-236220000D03*
%TD*%
D18*
%TO.P,R4,1*%
%TO.N,Net-(LS1-Pad1)*%
X265430000Y-349250000D03*
D19*
%TO.P,R4,2*%
%TO.N,Net-(R4-Pad2)*%
X257810000Y-349250000D03*
%TD*%
D14*
%TO.P,D15,1,K*%
%TO.N,R7*%
X347980000Y-165100000D03*
D15*
%TO.P,D15,2,A*%
%TO.N,Net-(D15-A)*%
X347980000Y-177800000D03*
%TD*%
D16*
%TO.P,SW39,1,1*%
%TO.N,C5*%
X279980000Y-196850000D03*
X279980000Y-190350000D03*
%TO.P,SW39,2,2*%
%TO.N,Net-(D38-A)*%
X284480000Y-196850000D03*
X284480000Y-190350000D03*
%TD*%
%TO.P,SW35,1,1*%
%TO.N,C5*%
X279980000Y-273050000D03*
X279980000Y-266550000D03*
%TO.P,SW35,2,2*%
%TO.N,Net-(D34-A)*%
X284480000Y-273050000D03*
X284480000Y-266550000D03*
%TD*%
%TO.P,SW36,1,1*%
%TO.N,C5*%
X279980000Y-255270000D03*
X279980000Y-248770000D03*
%TO.P,SW36,2,2*%
%TO.N,Net-(D35-A)*%
X284480000Y-255270000D03*
X284480000Y-248770000D03*
%TD*%
D14*
%TO.P,D3,1,K*%
%TO.N,R3*%
X367030000Y-242570000D03*
D15*
%TO.P,D3,2,A*%
%TO.N,Net-(D3-A)*%
X367030000Y-255270000D03*
%TD*%
D14*
%TO.P,D45,1,K*%
%TO.N,R5*%
X271780000Y-203200000D03*
D15*
%TO.P,D45,2,A*%
%TO.N,Net-(D45-A)*%
X271780000Y-215900000D03*
%TD*%
D16*
%TO.P,SW46,1,1*%
%TO.N,C6*%
X260930000Y-214630000D03*
X260930000Y-208130000D03*
%TO.P,SW46,2,2*%
%TO.N,Net-(D45-A)*%
X265430000Y-214630000D03*
X265430000Y-208130000D03*
%TD*%
%TO.P,SW26,1,1*%
%TO.N,C4*%
X299030000Y-289000000D03*
X299030000Y-282500000D03*
%TO.P,SW26,2,2*%
%TO.N,Net-(D25-A)*%
X303530000Y-289000000D03*
X303530000Y-282500000D03*
%TD*%
%TO.P,SW48,1,1*%
%TO.N,C6*%
X260930000Y-177800000D03*
X260930000Y-171300000D03*
%TO.P,SW48,2,2*%
%TO.N,Net-(D47-A)*%
X265430000Y-177800000D03*
X265430000Y-171300000D03*
%TD*%
%TO.P,SW3,1,1*%
%TO.N,C1*%
X356180000Y-274320000D03*
X356180000Y-267820000D03*
%TO.P,SW3,2,2*%
%TO.N,Net-(D2-A)*%
X360680000Y-274320000D03*
X360680000Y-267820000D03*
%TD*%
%TO.P,SW14,1,1*%
%TO.N,C2*%
X337130000Y-215900000D03*
X337130000Y-209400000D03*
%TO.P,SW14,2,2*%
%TO.N,Net-(D13-A)*%
X341630000Y-215900000D03*
X341630000Y-209400000D03*
%TD*%
D14*
%TO.P,D24,1,K*%
%TO.N,R8*%
X328930000Y-146050000D03*
D15*
%TO.P,D24,2,A*%
%TO.N,Net-(D24-A)*%
X328930000Y-158750000D03*
%TD*%
D16*
%TO.P,SW31,1,1*%
%TO.N,C4*%
X299030000Y-196850000D03*
X299030000Y-190350000D03*
%TO.P,SW31,2,2*%
%TO.N,Net-(D30-A)*%
X303530000Y-196850000D03*
X303530000Y-190350000D03*
%TD*%
%TO.P,SW65,1,1*%
%TO.N,C8*%
X239050000Y-159460000D03*
X239050000Y-152960000D03*
%TO.P,SW65,2,2*%
%TO.N,Net-(D64-A)*%
X243550000Y-159460000D03*
X243550000Y-152960000D03*
%TD*%
D18*
%TO.P,R1,1*%
%TO.N,Net-(R1-Pad1)*%
X316230000Y-309880000D03*
D19*
%TO.P,R1,2*%
%TO.N,Net-(R1-Pad2)*%
X323850000Y-309880000D03*
%TD*%
D14*
%TO.P,D26,1,K*%
%TO.N,R2*%
X309880000Y-261620000D03*
D15*
%TO.P,D26,2,A*%
%TO.N,Net-(D26-A)*%
X309880000Y-274320000D03*
%TD*%
D14*
%TO.P,D34,1,K*%
%TO.N,R2*%
X290830000Y-261620000D03*
D15*
%TO.P,D34,2,A*%
%TO.N,Net-(D34-A)*%
X290830000Y-274320000D03*
%TD*%
D14*
%TO.P,D16,1,K*%
%TO.N,R8*%
X347980000Y-146050000D03*
D15*
%TO.P,D16,2,A*%
%TO.N,Net-(D16-A)*%
X347980000Y-158750000D03*
%TD*%
D16*
%TO.P,SW4,1,1*%
%TO.N,C1*%
X356180000Y-255270000D03*
X356180000Y-248770000D03*
%TO.P,SW4,2,2*%
%TO.N,Net-(D3-A)*%
X360680000Y-255270000D03*
X360680000Y-248770000D03*
%TD*%
%TO.P,SW32,1,1*%
%TO.N,C4*%
X299030000Y-177800000D03*
X299030000Y-171300000D03*
%TO.P,SW32,2,2*%
%TO.N,Net-(D31-A)*%
X303530000Y-177800000D03*
X303530000Y-171300000D03*
%TD*%
D14*
%TO.P,D29,1,K*%
%TO.N,R5*%
X309880000Y-203200000D03*
D15*
%TO.P,D29,2,A*%
%TO.N,Net-(D29-A)*%
X309880000Y-215900000D03*
%TD*%
D14*
%TO.P,D22,1,K*%
%TO.N,R6*%
X328930000Y-184150000D03*
D15*
%TO.P,D22,2,A*%
%TO.N,Net-(D22-A)*%
X328930000Y-196850000D03*
%TD*%
D16*
%TO.P,SW25,1,1*%
%TO.N,C3*%
X318080000Y-158750000D03*
X318080000Y-152250000D03*
%TO.P,SW25,2,2*%
%TO.N,Net-(D24-A)*%
X322580000Y-158750000D03*
X322580000Y-152250000D03*
%TD*%
%TO.P,SW54,1,1*%
%TO.N,C7*%
X251460000Y-234950000D03*
X251460000Y-228450000D03*
%TO.P,SW54,2,2*%
%TO.N,Net-(D53-A)*%
X255960000Y-234950000D03*
X255960000Y-228450000D03*
%TD*%
D14*
%TO.P,D12,1,K*%
%TO.N,R4*%
X347980000Y-223520000D03*
D15*
%TO.P,D12,2,A*%
%TO.N,Net-(D12-A)*%
X347980000Y-236220000D03*
%TD*%
D14*
%TO.P,D35,1,K*%
%TO.N,R3*%
X290830000Y-242570000D03*
D15*
%TO.P,D35,2,A*%
%TO.N,Net-(D35-A)*%
X290830000Y-255270000D03*
%TD*%
D14*
%TO.P,D31,1,K*%
%TO.N,R7*%
X309880000Y-165100000D03*
D15*
%TO.P,D31,2,A*%
%TO.N,Net-(D31-A)*%
X309880000Y-177800000D03*
%TD*%
D20*
%TO.P,SW1,*%
%TO.N,*%
X248400000Y-304800000D03*
X259600000Y-304800000D03*
D21*
%TO.P,SW1,A,A*%
%TO.N,Net-(R2-Pad1)*%
X251500000Y-312300000D03*
%TO.P,SW1,B,B*%
%TO.N,Net-(R3-Pad1)*%
X256500000Y-312300000D03*
%TO.P,SW1,C,C*%
%TO.N,Net-(SW1-PadC)*%
X254000000Y-312300000D03*
%TO.P,SW1,S1,S1*%
%TO.N,Net-(R1-Pad1)*%
X251500000Y-297800000D03*
%TO.P,SW1,S2,S2*%
%TO.N,Net-(SW1-PadS2)*%
X256500000Y-297800000D03*
%TD*%
D14*
%TO.P,D56,1,K*%
%TO.N,R8*%
X252730000Y-182880000D03*
D15*
%TO.P,D56,2,A*%
%TO.N,Net-(D56-A)*%
X252730000Y-195580000D03*
%TD*%
D16*
%TO.P,SW38,1,1*%
%TO.N,C5*%
X279980000Y-215900000D03*
X279980000Y-209400000D03*
%TO.P,SW38,2,2*%
%TO.N,Net-(D37-A)*%
X284480000Y-215900000D03*
X284480000Y-209400000D03*
%TD*%
D14*
%TO.P,D36,1,K*%
%TO.N,R4*%
X290830000Y-223520000D03*
D15*
%TO.P,D36,2,A*%
%TO.N,Net-(D36-A)*%
X290830000Y-236220000D03*
%TD*%
D14*
%TO.P,D50,1,K*%
%TO.N,R2*%
X252730000Y-261620000D03*
D15*
%TO.P,D50,2,A*%
%TO.N,Net-(D50-A)*%
X252730000Y-274320000D03*
%TD*%
D16*
%TO.P,SW10,1,1*%
%TO.N,C2*%
X337130000Y-292100000D03*
X337130000Y-285600000D03*
%TO.P,SW10,2,2*%
%TO.N,Net-(D9-A)*%
X341630000Y-292100000D03*
X341630000Y-285600000D03*
%TD*%
%TO.P,SW7,1,1*%
%TO.N,C1*%
X356180000Y-196850000D03*
X356180000Y-190350000D03*
%TO.P,SW7,2,2*%
%TO.N,Net-(D6-A)*%
X360680000Y-196850000D03*
X360680000Y-190350000D03*
%TD*%
D14*
%TO.P,D59,1,K*%
%TO.N,R3*%
X219710000Y-241300000D03*
D15*
%TO.P,D59,2,A*%
%TO.N,Net-(D59-A)*%
X232410000Y-241300000D03*
%TD*%
D16*
%TO.P,SW59,1,1*%
%TO.N,C8*%
X226060000Y-266850000D03*
X226060000Y-260350000D03*
%TO.P,SW59,2,2*%
%TO.N,Net-(D58-A)*%
X230560000Y-266850000D03*
X230560000Y-260350000D03*
%TD*%
D14*
%TO.P,D8,1,K*%
%TO.N,R8*%
X367031000Y-146050000D03*
D15*
%TO.P,D8,2,A*%
%TO.N,Net-(D8-A)*%
X367031000Y-158750000D03*
%TD*%
D18*
%TO.P,R6,1*%
%TO.N,Net-(R4-Pad2)*%
X257810000Y-353060000D03*
D19*
%TO.P,R6,2*%
%TO.N,Net-(J1-PadSN)*%
X265430000Y-353060000D03*
%TD*%
D16*
%TO.P,SW57,1,1*%
%TO.N,C7*%
X241300000Y-196850000D03*
X241300000Y-190350000D03*
%TO.P,SW57,2,2*%
%TO.N,Net-(D56-A)*%
X245800000Y-196850000D03*
X245800000Y-190350000D03*
%TD*%
%TO.P,SW43,1,1*%
%TO.N,C6*%
X260640000Y-273050000D03*
X260640000Y-266550000D03*
%TO.P,SW43,2,2*%
%TO.N,Net-(D42-A)*%
X265140000Y-273050000D03*
X265140000Y-266550000D03*
%TD*%
%TO.P,SW45,1,1*%
%TO.N,C6*%
X261620000Y-234950000D03*
X261620000Y-228450000D03*
%TO.P,SW45,2,2*%
%TO.N,Net-(D44-A)*%
X266120000Y-234950000D03*
X266120000Y-228450000D03*
%TD*%
D18*
%TO.P,R3,1*%
%TO.N,Net-(R3-Pad1)*%
X316230000Y-321310000D03*
D19*
%TO.P,R3,2*%
%TO.N,Net-(R1-Pad2)*%
X323850000Y-321310000D03*
%TD*%
D14*
%TO.P,D21,1,K*%
%TO.N,R5*%
X328930000Y-203200000D03*
D15*
%TO.P,D21,2,A*%
%TO.N,Net-(D21-A)*%
X328930000Y-215900000D03*
%TD*%
D16*
%TO.P,SW8,1,1*%
%TO.N,C1*%
X356180000Y-177800000D03*
X356180000Y-171300000D03*
%TO.P,SW8,2,2*%
%TO.N,Net-(D7-A)*%
X360680000Y-177800000D03*
X360680000Y-171300000D03*
%TD*%
D18*
%TO.P,R2,1*%
%TO.N,Net-(R2-Pad1)*%
X316230000Y-325120000D03*
D19*
%TO.P,R2,2*%
%TO.N,Net-(R1-Pad2)*%
X323850000Y-325120000D03*
%TD*%
D14*
%TO.P,D4,1,K*%
%TO.N,R4*%
X367030000Y-223520000D03*
D15*
%TO.P,D4,2,A*%
%TO.N,Net-(D4-A)*%
X367030000Y-236220000D03*
%TD*%
D14*
%TO.P,D63,1,K*%
%TO.N,R7*%
X234950000Y-165100000D03*
D15*
%TO.P,D63,2,A*%
%TO.N,Net-(D63-A)*%
X234950000Y-177800000D03*
%TD*%
D16*
%TO.P,SW44,1,1*%
%TO.N,C6*%
X260930000Y-255270000D03*
X260930000Y-248770000D03*
%TO.P,SW44,2,2*%
%TO.N,Net-(D43-A)*%
X265430000Y-255270000D03*
X265430000Y-248770000D03*
%TD*%
D14*
%TO.P,D48,1,K*%
%TO.N,R8*%
X271780000Y-146050000D03*
D15*
%TO.P,D48,2,A*%
%TO.N,Net-(D48-A)*%
X271780000Y-158750000D03*
%TD*%
D16*
%TO.P,SW2,1,1*%
%TO.N,C1*%
X356180000Y-292250000D03*
X356180000Y-285750000D03*
%TO.P,SW2,2,2*%
%TO.N,Net-(D1-A)*%
X360680000Y-292250000D03*
X360680000Y-285750000D03*
%TD*%
D14*
%TO.P,D38,1,K*%
%TO.N,R6*%
X290830000Y-184150000D03*
D15*
%TO.P,D38,2,A*%
%TO.N,Net-(D38-A)*%
X290830000Y-196850000D03*
%TD*%
D14*
%TO.P,D55,1,K*%
%TO.N,R7*%
X252730000Y-201930000D03*
D15*
%TO.P,D55,2,A*%
%TO.N,Net-(D55-A)*%
X252730000Y-214630000D03*
%TD*%
D16*
%TO.P,SW63,1,1*%
%TO.N,C8*%
X241300000Y-177800000D03*
X241300000Y-171300000D03*
%TO.P,SW63,2,2*%
%TO.N,Net-(D62-A)*%
X245800000Y-177800000D03*
X245800000Y-171300000D03*
%TD*%
%TO.P,SW28,1,1*%
%TO.N,C4*%
X299030000Y-255270000D03*
X299030000Y-248770000D03*
%TO.P,SW28,2,2*%
%TO.N,Net-(D27-A)*%
X303530000Y-255270000D03*
X303530000Y-248770000D03*
%TD*%
D14*
%TO.P,D7,1,K*%
%TO.N,R7*%
X367030000Y-165100000D03*
D15*
%TO.P,D7,2,A*%
%TO.N,Net-(D7-A)*%
X367030000Y-177800000D03*
%TD*%
D16*
%TO.P,SW64,1,1*%
%TO.N,C8*%
X226060000Y-171450000D03*
X226060000Y-164950000D03*
%TO.P,SW64,2,2*%
%TO.N,Net-(D63-A)*%
X230560000Y-171450000D03*
X230560000Y-164950000D03*
%TD*%
D14*
%TO.P,D13,1,K*%
%TO.N,R5*%
X347980000Y-203200000D03*
D15*
%TO.P,D13,2,A*%
%TO.N,Net-(D13-A)*%
X347980000Y-215900000D03*
%TD*%
D16*
%TO.P,SW33,1,1*%
%TO.N,C4*%
X299030000Y-158750000D03*
X299030000Y-152250000D03*
%TO.P,SW33,2,2*%
%TO.N,Net-(D32-A)*%
X303530000Y-158750000D03*
X303530000Y-152250000D03*
%TD*%
D14*
%TO.P,D11,1,K*%
%TO.N,R3*%
X347980000Y-242570000D03*
D15*
%TO.P,D11,2,A*%
%TO.N,Net-(D11-A)*%
X347980000Y-255270000D03*
%TD*%
D16*
%TO.P,SW21,1,1*%
%TO.N,C3*%
X318080000Y-234950000D03*
X318080000Y-228450000D03*
%TO.P,SW21,2,2*%
%TO.N,Net-(D20-A)*%
X322580000Y-234950000D03*
X322580000Y-228450000D03*
%TD*%
%TO.P,SW41,1,1*%
%TO.N,C5*%
X279980000Y-158750000D03*
X279980000Y-152250000D03*
%TO.P,SW41,2,2*%
%TO.N,Net-(D40-A)*%
X284480000Y-158750000D03*
X284480000Y-152250000D03*
%TD*%
D14*
%TO.P,D10,1,K*%
%TO.N,R2*%
X347980000Y-261620000D03*
D15*
%TO.P,D10,2,A*%
%TO.N,Net-(D10-A)*%
X347980000Y-274320000D03*
%TD*%
D14*
%TO.P,D14,1,K*%
%TO.N,R6*%
X347980000Y-184150000D03*
D15*
%TO.P,D14,2,A*%
%TO.N,Net-(D14-A)*%
X347980000Y-196850000D03*
%TD*%
D16*
%TO.P,SW47,1,1*%
%TO.N,C6*%
X260930000Y-196850000D03*
X260930000Y-190350000D03*
%TO.P,SW47,2,2*%
%TO.N,Net-(D46-A)*%
X265430000Y-196850000D03*
X265430000Y-190350000D03*
%TD*%
%TO.P,SW11,1,1*%
%TO.N,C2*%
X337130000Y-274320000D03*
X337130000Y-267820000D03*
%TO.P,SW11,2,2*%
%TO.N,Net-(D10-A)*%
X341630000Y-274320000D03*
X341630000Y-267820000D03*
%TD*%
D14*
%TO.P,D41,1,K*%
%TO.N,R1*%
X271780000Y-279400000D03*
D15*
%TO.P,D41,2,A*%
%TO.N,Net-(D41-A)*%
X271780000Y-292100000D03*
%TD*%
D16*
%TO.P,SW60,1,1*%
%TO.N,C8*%
X240610000Y-234950000D03*
X240610000Y-228450000D03*
%TO.P,SW60,2,2*%
%TO.N,Net-(D59-A)*%
X245110000Y-234950000D03*
X245110000Y-228450000D03*
%TD*%
D14*
%TO.P,D1,1,K*%
%TO.N,R1*%
X367030000Y-279400000D03*
D15*
%TO.P,D1,2,A*%
%TO.N,Net-(D1-A)*%
X367030000Y-292100000D03*
%TD*%
D14*
%TO.P,D30,1,K*%
%TO.N,R6*%
X309880000Y-184150000D03*
D15*
%TO.P,D30,2,A*%
%TO.N,Net-(D30-A)*%
X309880000Y-196850000D03*
%TD*%
D14*
%TO.P,D5,1,K*%
%TO.N,R5*%
X367030000Y-203200000D03*
D15*
%TO.P,D5,2,A*%
%TO.N,Net-(D5-A)*%
X367030000Y-215900000D03*
%TD*%
D16*
%TO.P,SW27,1,1*%
%TO.N,C4*%
X299030000Y-273050000D03*
X299030000Y-266550000D03*
%TO.P,SW27,2,2*%
%TO.N,Net-(D26-A)*%
X303530000Y-273050000D03*
X303530000Y-266550000D03*
%TD*%
D14*
%TO.P,D18,1,K*%
%TO.N,R2*%
X328930000Y-261620000D03*
D15*
%TO.P,D18,2,A*%
%TO.N,Net-(D18-A)*%
X328930000Y-274320000D03*
%TD*%
D16*
%TO.P,SW23,1,1*%
%TO.N,C3*%
X318080000Y-196850000D03*
X318080000Y-190350000D03*
%TO.P,SW23,2,2*%
%TO.N,Net-(D22-A)*%
X322580000Y-196850000D03*
X322580000Y-190350000D03*
%TD*%
D14*
%TO.P,D62,1,K*%
%TO.N,R6*%
X252730000Y-166370000D03*
D15*
%TO.P,D62,2,A*%
%TO.N,Net-(D62-A)*%
X252730000Y-179070000D03*
%TD*%
D18*
%TO.P,R9,1*%
%TO.N,Net-(R7-Pad2)*%
X347980000Y-352030000D03*
D19*
%TO.P,R9,2*%
%TO.N,Net-(J1-PadTN)*%
X340360000Y-352030000D03*
%TD*%
D14*
%TO.P,D25,1,K*%
%TO.N,R1*%
X309880000Y-279400000D03*
D15*
%TO.P,D25,2,A*%
%TO.N,Net-(D25-A)*%
X309880000Y-292100000D03*
%TD*%
D14*
%TO.P,D39,1,K*%
%TO.N,R7*%
X290830000Y-165100000D03*
D15*
%TO.P,D39,2,A*%
%TO.N,Net-(D39-A)*%
X290830000Y-177800000D03*
%TD*%
D16*
%TO.P,SW58,1,1*%
%TO.N,C8*%
X226350000Y-285190000D03*
X226350000Y-278690000D03*
%TO.P,SW58,2,2*%
%TO.N,Net-(D57-A)*%
X230850000Y-285190000D03*
X230850000Y-278690000D03*
%TD*%
D14*
%TO.P,D19,1,K*%
%TO.N,R3*%
X328930000Y-242570000D03*
D15*
%TO.P,D19,2,A*%
%TO.N,Net-(D19-A)*%
X328930000Y-255270000D03*
%TD*%
D14*
%TO.P,D32,1,K*%
%TO.N,R8*%
X309880000Y-146050000D03*
D15*
%TO.P,D32,2,A*%
%TO.N,Net-(D32-A)*%
X309880000Y-158750000D03*
%TD*%
D16*
%TO.P,SW22,1,1*%
%TO.N,C3*%
X318080000Y-215900000D03*
X318080000Y-209400000D03*
%TO.P,SW22,2,2*%
%TO.N,Net-(D21-A)*%
X322580000Y-215900000D03*
X322580000Y-209400000D03*
%TD*%
D22*
%TO.P,SW67,*%
%TO.N,*%
X235240000Y-351790000D03*
X227040000Y-351790000D03*
D23*
%TO.P,SW67,1,A*%
%TO.N,unconnected-(SW67-A-Pad1)*%
X233140000Y-351790000D03*
D24*
%TO.P,SW67,2,B*%
%TO.N,Net-(SW67-B)*%
X231140000Y-351790000D03*
%TO.P,SW67,3,C*%
%TO.N,Net-(SW67-C)*%
X229140000Y-351790000D03*
%TD*%
D16*
%TO.P,SW49,1,1*%
%TO.N,C6*%
X256830000Y-159460000D03*
X256830000Y-152960000D03*
%TO.P,SW49,2,2*%
%TO.N,Net-(D48-A)*%
X261330000Y-159460000D03*
X261330000Y-152960000D03*
%TD*%
D18*
%TO.P,R7,1*%
%TO.N,Net-(LS2-Pad1)*%
X340360000Y-347980000D03*
D19*
%TO.P,R7,2*%
%TO.N,Net-(R7-Pad2)*%
X347980000Y-347980000D03*
%TD*%
D16*
%TO.P,SW19,1,1*%
%TO.N,C3*%
X318080000Y-273050000D03*
X318080000Y-266550000D03*
%TO.P,SW19,2,2*%
%TO.N,Net-(D18-A)*%
X322580000Y-273050000D03*
X322580000Y-266550000D03*
%TD*%
D14*
%TO.P,D17,1,K*%
%TO.N,R1*%
X328930000Y-279400000D03*
D15*
%TO.P,D17,2,A*%
%TO.N,Net-(D17-A)*%
X328930000Y-292100000D03*
%TD*%
D16*
%TO.P,SW40,1,1*%
%TO.N,C5*%
X279980000Y-177800000D03*
X279980000Y-171300000D03*
%TO.P,SW40,2,2*%
%TO.N,Net-(D39-A)*%
X284480000Y-177800000D03*
X284480000Y-171300000D03*
%TD*%
%TO.P,SW17,1,1*%
%TO.N,C2*%
X337130000Y-158750000D03*
X337130000Y-152250000D03*
%TO.P,SW17,2,2*%
%TO.N,Net-(D16-A)*%
X341630000Y-158750000D03*
X341630000Y-152250000D03*
%TD*%
D14*
%TO.P,D42,1,K*%
%TO.N,R2*%
X271780000Y-261620000D03*
D15*
%TO.P,D42,2,A*%
%TO.N,Net-(D42-A)*%
X271780000Y-274320000D03*
%TD*%
D14*
%TO.P,D33,1,K*%
%TO.N,R1*%
X290830000Y-279400000D03*
D15*
%TO.P,D33,2,A*%
%TO.N,Net-(D33-A)*%
X290830000Y-292100000D03*
%TD*%
D18*
%TO.P,R10,1*%
%TO.N,Net-(R1-Pad2)*%
X234950000Y-344170000D03*
D19*
%TO.P,R10,2*%
%TO.N,Net-(SW67-C)*%
X227330000Y-344170000D03*
%TD*%
D14*
%TO.P,D54,1,K*%
%TO.N,R6*%
X219710000Y-226060000D03*
D15*
%TO.P,D54,2,A*%
%TO.N,Net-(D54-A)*%
X232410000Y-226060000D03*
%TD*%
D16*
%TO.P,SW51,1,1*%
%TO.N,C7*%
X241590000Y-273050000D03*
X241590000Y-266550000D03*
%TO.P,SW51,2,2*%
%TO.N,Net-(D50-A)*%
X246090000Y-273050000D03*
X246090000Y-266550000D03*
%TD*%
D14*
%TO.P,D60,1,K*%
%TO.N,R4*%
X234950000Y-199390000D03*
D15*
%TO.P,D60,2,A*%
%TO.N,Net-(D60-A)*%
X234950000Y-212090000D03*
%TD*%
D16*
%TO.P,SW12,1,1*%
%TO.N,C2*%
X337130000Y-255270000D03*
X337130000Y-248770000D03*
%TO.P,SW12,2,2*%
%TO.N,Net-(D11-A)*%
X341630000Y-255270000D03*
X341630000Y-248770000D03*
%TD*%
D14*
%TO.P,D57,1,K*%
%TO.N,R1*%
X234950000Y-276860000D03*
D15*
%TO.P,D57,2,A*%
%TO.N,Net-(D57-A)*%
X234950000Y-289560000D03*
%TD*%
D16*
%TO.P,SW53,1,1*%
%TO.N,C7*%
X251460000Y-245110000D03*
X251460000Y-238610000D03*
%TO.P,SW53,2,2*%
%TO.N,Net-(D52-A)*%
X255960000Y-245110000D03*
X255960000Y-238610000D03*
%TD*%
%TO.P,SW24,1,1*%
%TO.N,C3*%
X318080000Y-177800000D03*
X318080000Y-171300000D03*
%TO.P,SW24,2,2*%
%TO.N,Net-(D23-A)*%
X322580000Y-177800000D03*
X322580000Y-171300000D03*
%TD*%
%TO.P,SW50,1,1*%
%TO.N,C7*%
X241590000Y-289000000D03*
X241590000Y-282500000D03*
%TO.P,SW50,2,2*%
%TO.N,Net-(D49-A)*%
X246090000Y-289000000D03*
X246090000Y-282500000D03*
%TD*%
%TO.P,SW9,1,1*%
%TO.N,C1*%
X356180000Y-156210000D03*
X356180000Y-149710000D03*
%TO.P,SW9,2,2*%
%TO.N,Net-(D8-A)*%
X360680000Y-156210000D03*
X360680000Y-149710000D03*
%TD*%
D14*
%TO.P,D51,1,K*%
%TO.N,R3*%
X219710000Y-246380000D03*
D15*
%TO.P,D51,2,A*%
%TO.N,Net-(D51-A)*%
X232410000Y-246380000D03*
%TD*%
D16*
%TO.P,SW42,1,1*%
%TO.N,C6*%
X260640000Y-289000000D03*
X260640000Y-282500000D03*
%TO.P,SW42,2,2*%
%TO.N,Net-(D41-A)*%
X265140000Y-289000000D03*
X265140000Y-282500000D03*
%TD*%
D14*
%TO.P,D52,1,K*%
%TO.N,R4*%
X219710000Y-236220000D03*
D15*
%TO.P,D52,2,A*%
%TO.N,Net-(D52-A)*%
X232410000Y-236220000D03*
%TD*%
D16*
%TO.P,SW16,1,1*%
%TO.N,C2*%
X337130000Y-177800000D03*
X337130000Y-171300000D03*
%TO.P,SW16,2,2*%
%TO.N,Net-(D15-A)*%
X341630000Y-177800000D03*
X341630000Y-171300000D03*
%TD*%
D14*
%TO.P,D58,1,K*%
%TO.N,R2*%
X234950000Y-256540000D03*
D15*
%TO.P,D58,2,A*%
%TO.N,Net-(D58-A)*%
X234950000Y-269240000D03*
%TD*%
D16*
%TO.P,SW20,1,1*%
%TO.N,C3*%
X318080000Y-255270000D03*
X318080000Y-248770000D03*
%TO.P,SW20,2,2*%
%TO.N,Net-(D19-A)*%
X322580000Y-255270000D03*
X322580000Y-248770000D03*
%TD*%
%TO.P,SW13,1,1*%
%TO.N,C2*%
X337130000Y-236220000D03*
X337130000Y-229720000D03*
%TO.P,SW13,2,2*%
%TO.N,Net-(D12-A)*%
X341630000Y-236220000D03*
X341630000Y-229720000D03*
%TD*%
D14*
%TO.P,D23,1,K*%
%TO.N,R7*%
X328930000Y-165100000D03*
D15*
%TO.P,D23,2,A*%
%TO.N,Net-(D23-A)*%
X328930000Y-177800000D03*
%TD*%
D16*
%TO.P,SW56,1,1*%
%TO.N,C7*%
X241300000Y-214630000D03*
X241300000Y-208130000D03*
%TO.P,SW56,2,2*%
%TO.N,Net-(D55-A)*%
X245800000Y-214630000D03*
X245800000Y-208130000D03*
%TD*%
D14*
%TO.P,D46,1,K*%
%TO.N,R6*%
X271780000Y-184150000D03*
D15*
%TO.P,D46,2,A*%
%TO.N,Net-(D46-A)*%
X271780000Y-196850000D03*
%TD*%
D16*
%TO.P,SW18,1,1*%
%TO.N,C3*%
X318080000Y-289000000D03*
X318080000Y-282500000D03*
%TO.P,SW18,2,2*%
%TO.N,Net-(D17-A)*%
X322580000Y-289000000D03*
X322580000Y-282500000D03*
%TD*%
%TO.P,SW29,1,1*%
%TO.N,C4*%
X299030000Y-234950000D03*
X299030000Y-228450000D03*
%TO.P,SW29,2,2*%
%TO.N,Net-(D28-A)*%
X303530000Y-234950000D03*
X303530000Y-228450000D03*
%TD*%
%TO.P,SW37,1,1*%
%TO.N,C5*%
X279980000Y-234950000D03*
X279980000Y-228450000D03*
%TO.P,SW37,2,2*%
%TO.N,Net-(D36-A)*%
X284480000Y-234950000D03*
X284480000Y-228450000D03*
%TD*%
D17*
%TO.P,LS2,1,1*%
%TO.N,Net-(LS2-Pad1)*%
X341630000Y-341630000D03*
%TO.P,LS2,2,2*%
%TO.N,Net-(J1-PadG)*%
X346710000Y-341630000D03*
%TD*%
D14*
%TO.P,D9,1,K*%
%TO.N,R1*%
X347980000Y-279400000D03*
D15*
%TO.P,D9,2,A*%
%TO.N,Net-(D9-A)*%
X347980000Y-292100000D03*
%TD*%
D16*
%TO.P,SW6,1,1*%
%TO.N,C1*%
X356180000Y-215900000D03*
X356180000Y-209400000D03*
%TO.P,SW6,2,2*%
%TO.N,Net-(D5-A)*%
X360680000Y-215900000D03*
X360680000Y-209400000D03*
%TD*%
%TO.P,SW61,1,1*%
%TO.N,C8*%
X226060000Y-209550000D03*
X226060000Y-203050000D03*
%TO.P,SW61,2,2*%
%TO.N,Net-(D60-A)*%
X230560000Y-209550000D03*
X230560000Y-203050000D03*
%TD*%
D14*
%TO.P,D20,1,K*%
%TO.N,R4*%
X328930000Y-223520000D03*
D15*
%TO.P,D20,2,A*%
%TO.N,Net-(D20-A)*%
X328930000Y-236220000D03*
%TD*%
D16*
%TO.P,SW34,1,1*%
%TO.N,C5*%
X279980000Y-289000000D03*
X279980000Y-282500000D03*
%TO.P,SW34,2,2*%
%TO.N,Net-(D33-A)*%
X284480000Y-289000000D03*
X284480000Y-282500000D03*
%TD*%
%TO.P,SW62,1,1*%
%TO.N,C8*%
X226060000Y-190500000D03*
X226060000Y-184000000D03*
%TO.P,SW62,2,2*%
%TO.N,Net-(D61-A)*%
X230560000Y-190500000D03*
X230560000Y-184000000D03*
%TD*%
%TO.P,SW15,1,1*%
%TO.N,C2*%
X337130000Y-196850000D03*
X337130000Y-190350000D03*
%TO.P,SW15,2,2*%
%TO.N,Net-(D14-A)*%
X341630000Y-196850000D03*
X341630000Y-190350000D03*
%TD*%
%TO.P,SW30,1,1*%
%TO.N,C4*%
X299030000Y-215900000D03*
X299030000Y-209400000D03*
%TO.P,SW30,2,2*%
%TO.N,Net-(D29-A)*%
X303530000Y-215900000D03*
X303530000Y-209400000D03*
%TD*%
D14*
%TO.P,D28,1,K*%
%TO.N,R4*%
X309880000Y-223520000D03*
D15*
%TO.P,D28,2,A*%
%TO.N,Net-(D28-A)*%
X309880000Y-236220000D03*
%TD*%
D16*
%TO.P,SW66,1,1*%
%TO.N,Net-(SW66-Pad1)*%
X318770000Y-352500000D03*
X318770000Y-346000000D03*
%TO.P,SW66,2,2*%
%TO.N,Net-(SW1-PadC)*%
X323270000Y-352500000D03*
X323270000Y-346000000D03*
%TD*%
D14*
%TO.P,D27,1,K*%
%TO.N,R3*%
X309880000Y-242570000D03*
D15*
%TO.P,D27,2,A*%
%TO.N,Net-(D27-A)*%
X309880000Y-255270000D03*
%TD*%
D17*
%TO.P,UDA1334Breakout1,3VO*%
%TO.N,unconnected-(UDA1334Breakout1-Pad3VO)*%
X264160000Y-339090000D03*
%TO.P,UDA1334Breakout1,AGND*%
%TO.N,Net-(J1-PadG)*%
X248920000Y-339090000D03*
%TO.P,UDA1334Breakout1,BCLK*%
%TO.N,Net-(UDA1334Breakout1-PadBCLK)*%
X254000000Y-339090000D03*
%TO.P,UDA1334Breakout1,DEEM*%
%TO.N,unconnected-(UDA1334Breakout1-PadDEEM)*%
X254000000Y-318770000D03*
%TO.P,UDA1334Breakout1,DIN*%
%TO.N,Net-(UDA1334Breakout1-PadDIN)*%
X256540000Y-339090000D03*
%TO.P,UDA1334Breakout1,GND*%
%TO.N,Net-(SW1-PadC)*%
X261620000Y-339090000D03*
%TO.P,UDA1334Breakout1,Lout*%
%TO.N,Net-(J1-PadT)*%
X251460000Y-339090000D03*
%TO.P,UDA1334Breakout1,MUTE*%
%TO.N,Net-(SW67-B)*%
X261620000Y-318770000D03*
%TO.P,UDA1334Breakout1,PLL*%
%TO.N,unconnected-(UDA1334Breakout1-PadPLL)*%
X256540000Y-318770000D03*
%TO.P,UDA1334Breakout1,Rout*%
%TO.N,Net-(J1-PadS)*%
X246380000Y-339090000D03*
%TO.P,UDA1334Breakout1,SCLK*%
%TO.N,unconnected-(UDA1334Breakout1-PadSCLK)*%
X266700000Y-318770000D03*
%TO.P,UDA1334Breakout1,SF0*%
%TO.N,unconnected-(UDA1334Breakout1-PadSF0)*%
X259080000Y-318770000D03*
%TO.P,UDA1334Breakout1,SF1*%
%TO.N,unconnected-(UDA1334Breakout1-PadSF1)*%
X264160000Y-318770000D03*
%TO.P,UDA1334Breakout1,VIN*%
%TO.N,Net-(R1-Pad2)*%
X266700000Y-339090000D03*
%TO.P,UDA1334Breakout1,WSEL*%
%TO.N,Net-(UDA1334Breakout1-PadWSEL)*%
X259080000Y-339090000D03*
%TD*%
%TO.P,ePulseFeather1,01*%
%TO.N,R8*%
X287020000Y-317625000D03*
%TO.P,ePulseFeather1,02*%
%TO.N,Net-(UDA1334Breakout1-PadBCLK)*%
X287020000Y-348105000D03*
%TO.P,ePulseFeather1,03*%
%TO.N,C1*%
X287020000Y-320165000D03*
%TO.P,ePulseFeather1,3V3*%
%TO.N,Net-(R1-Pad2)*%
X287020000Y-350645000D03*
%TO.P,ePulseFeather1,04*%
%TO.N,C5*%
X287020000Y-330325000D03*
%TO.P,ePulseFeather1,05*%
%TO.N,C4*%
X287020000Y-327785000D03*
%TO.P,ePulseFeather1,12*%
%TO.N,Net-(R3-Pad1)*%
X307340000Y-332865000D03*
%TO.P,ePulseFeather1,13*%
%TO.N,Net-(R2-Pad1)*%
X307340000Y-335405000D03*
%TO.P,ePulseFeather1,14*%
%TO.N,R4*%
X307340000Y-320165000D03*
%TO.P,ePulseFeather1,15*%
%TO.N,C7*%
X307340000Y-325245000D03*
%TO.P,ePulseFeather1,18*%
%TO.N,C3*%
X287020000Y-325245000D03*
%TO.P,ePulseFeather1,19*%
%TO.N,C2*%
X287020000Y-322705000D03*
%TO.P,ePulseFeather1,21*%
%TO.N,R7*%
X287020000Y-315085000D03*
%TO.P,ePulseFeather1,22*%
%TO.N,R5*%
X307340000Y-317625000D03*
%TO.P,ePulseFeather1,23*%
%TO.N,R6*%
X307340000Y-315085000D03*
%TO.P,ePulseFeather1,25*%
%TO.N,Net-(UDA1334Breakout1-PadWSEL)*%
X287020000Y-340485000D03*
%TO.P,ePulseFeather1,26*%
%TO.N,Net-(UDA1334Breakout1-PadDIN)*%
X287020000Y-343025000D03*
%TO.P,ePulseFeather1,27*%
%TO.N,Net-(SW1-PadS2)*%
X307340000Y-330325000D03*
%TO.P,ePulseFeather1,32*%
%TO.N,C8*%
X307340000Y-322705000D03*
%TO.P,ePulseFeather1,33*%
%TO.N,C6*%
X307340000Y-327785000D03*
%TO.P,ePulseFeather1,34*%
%TO.N,R1*%
X287020000Y-337945000D03*
%TO.P,ePulseFeather1,36*%
%TO.N,R3*%
X287020000Y-332865000D03*
%TO.P,ePulseFeather1,39*%
%TO.N,R2*%
X287020000Y-335405000D03*
%TO.P,ePulseFeather1,BAT*%
%TO.N,unconnected-(ePulseFeather1-PadBAT)*%
X307340000Y-343025000D03*
%TO.P,ePulseFeather1,EN*%
%TO.N,Net-(SW66-Pad1)*%
X307340000Y-340485000D03*
%TO.P,ePulseFeather1,GND*%
%TO.N,Net-(SW1-PadC)*%
X287020000Y-345565000D03*
%TO.P,ePulseFeather1,RST*%
%TO.N,unconnected-(ePulseFeather1-PadRST)*%
X287020000Y-353185000D03*
%TO.P,ePulseFeather1,USB*%
%TO.N,unconnected-(ePulseFeather1-PadUSB)*%
X307340000Y-337945000D03*
%TD*%
D25*
%TO.N,R6*%
X369570000Y-184150000D03*
%TO.N,Net-(R2-Pad1)*%
X280670000Y-340360000D03*
X271780000Y-335280000D03*
%TO.N,Net-(R1-Pad1)*%
X304800000Y-304800000D03*
X281940000Y-300990000D03*
X278130000Y-300990000D03*
%TO.N,C7*%
X280670000Y-328930000D03*
%TD*%
D26*
%TO.N,R1*%
X241082084Y-279400000D02*
X367030000Y-279400000D01*
X234949999Y-276860001D02*
G75*
G03*
X241082084Y-279400000I6132101J6132101D01*
G01*
%TO.N,R2*%
X238436207Y-260026207D02*
X234950000Y-256540000D01*
X242283963Y-261620000D02*
X367030000Y-261620000D01*
X238436215Y-260026199D02*
G75*
G03*
X242283963Y-261620000I3847785J3847799D01*
G01*
%TO.N,R3*%
X222776011Y-242570000D02*
X367030000Y-242570000D01*
X219709985Y-241300015D02*
G75*
G03*
X222776011Y-242570000I3066015J3066015D01*
G01*
%TO.N,R4*%
X368255000Y-280300001D02*
X368255000Y-225611205D01*
X241562202Y-199390000D02*
X234950000Y-199390000D01*
X245409958Y-200983792D02*
X266352373Y-221926207D01*
X338138997Y-292964836D02*
X313483591Y-317620242D01*
X270200129Y-223520000D02*
X367030000Y-223520000D01*
X367642500Y-224132500D02*
X367030000Y-223520000D01*
X245409967Y-200983783D02*
G75*
G03*
X241562202Y-199390000I-3847767J-3847817D01*
G01*
X368254997Y-225611205D02*
G75*
G03*
X367642500Y-224132500I-2091197J5D01*
G01*
X367930001Y-280624988D02*
G75*
G03*
X338138998Y-292964837I-1J-42130812D01*
G01*
X266352348Y-221926232D02*
G75*
G03*
X270200129Y-223520000I3847752J3847832D01*
G01*
X307340000Y-320165015D02*
G75*
G03*
X313483591Y-317620242I0J8688315D01*
G01*
X368159810Y-280529810D02*
G75*
G03*
X368255000Y-280300001I-229810J229810D01*
G01*
X367930001Y-280625000D02*
G75*
G03*
X368159810Y-280529810I-1J325000D01*
G01*
%TO.N,R5*%
X228313963Y-181610000D02*
X234950000Y-181610000D01*
X282263792Y-322019266D02*
X284167272Y-323922746D01*
X254946207Y-201606207D02*
X234950000Y-181610000D01*
X258793963Y-203200000D02*
X367030000Y-203200000D01*
X285115000Y-325755000D02*
X284792727Y-325432727D01*
X286648025Y-326390000D02*
X288367627Y-326390000D01*
X280670000Y-318171510D02*
X280670000Y-292039942D01*
X228595747Y-272765367D02*
X234861587Y-279031207D01*
X305792701Y-319172299D02*
X307340000Y-317625000D01*
X276503792Y-282218792D02*
X281007464Y-286722464D01*
X272656036Y-280625000D02*
X238709343Y-280625000D01*
X218440000Y-248247224D02*
X218440000Y-233571085D01*
X222250000Y-187673963D02*
X222250000Y-228708928D01*
X223843792Y-183826206D02*
X224466207Y-183203792D01*
X254946215Y-201606199D02*
G75*
G03*
X258793963Y-203200000I3847785J3847799D01*
G01*
X228313963Y-181609960D02*
G75*
G03*
X224466208Y-183203793I37J-5441540D01*
G01*
X219260996Y-231589021D02*
G75*
G03*
X218440000Y-233571085I1982104J-1982079D01*
G01*
X223843801Y-183826215D02*
G75*
G03*
X222250000Y-187673963I3847799J-3847785D01*
G01*
X220345000Y-231139992D02*
G75*
G03*
X219260987Y-231589012I0J-1533008D01*
G01*
X218440000Y-248247224D02*
G75*
G03*
X228595747Y-272765367I34673900J4D01*
G01*
X234861555Y-279031239D02*
G75*
G03*
X238709343Y-280625000I3847745J3847839D01*
G01*
X281304984Y-290506901D02*
G75*
G03*
X280670000Y-292039942I1533016J-1532999D01*
G01*
X281304999Y-290506916D02*
G75*
G03*
X281940000Y-288973891I-1532999J1533016D01*
G01*
X280670008Y-318171510D02*
G75*
G03*
X282263792Y-322019266I5441592J10D01*
G01*
X284479969Y-324677737D02*
G75*
G03*
X284792727Y-325432727I1067731J37D01*
G01*
X276503784Y-282218800D02*
G75*
G03*
X272656036Y-280625000I-3847784J-3847800D01*
G01*
X288367627Y-326390012D02*
G75*
G03*
X305792700Y-319172298I-27J24642812D01*
G01*
X284479978Y-324677737D02*
G75*
G03*
X284167271Y-323922747I-1067678J37D01*
G01*
X281939989Y-288973891D02*
G75*
G03*
X281007464Y-286722464I-3183889J91D01*
G01*
X220345000Y-231140006D02*
G75*
G03*
X221429008Y-230690989I0J1533006D01*
G01*
X285114992Y-325755008D02*
G75*
G03*
X286648025Y-326390000I1533008J1533008D01*
G01*
X221429001Y-230690982D02*
G75*
G03*
X222250000Y-228708928I-1982101J1982082D01*
G01*
%TO.N,R6*%
X369570000Y-184150000D02*
X367030000Y-184150000D01*
X254323792Y-173067626D02*
X263812373Y-182556207D01*
X252730000Y-169219870D02*
X252730000Y-166370000D01*
X367030000Y-184150000D02*
X267660129Y-184150000D01*
X221303792Y-185729811D02*
X239069811Y-167963792D01*
X242917567Y-166370000D02*
X252730000Y-166370000D01*
X219710000Y-189577567D02*
X219710000Y-226060000D01*
X221303819Y-185729838D02*
G75*
G03*
X219710000Y-189577567I3847681J-3847762D01*
G01*
X263812348Y-182556232D02*
G75*
G03*
X267660129Y-184150000I3847752J3847832D01*
G01*
X252730036Y-169219870D02*
G75*
G03*
X254323792Y-173067626I5441564J-30D01*
G01*
X242917567Y-166369962D02*
G75*
G03*
X239069811Y-167963792I33J-5441538D01*
G01*
%TO.N,R7*%
X367030000Y-165100000D02*
X234950000Y-165100000D01*
%TO.N,R8*%
X233308025Y-146050000D02*
X367030000Y-146050000D01*
X231775000Y-146685000D02*
X231140000Y-147320000D01*
X233308025Y-146050011D02*
G75*
G03*
X231775000Y-146685000I-25J-2167989D01*
G01*
%TO.N,Net-(R1-Pad2)*%
X235231064Y-344451064D02*
X234950000Y-344170000D01*
X235909614Y-344732129D02*
X263753261Y-344732129D01*
X303921529Y-349051207D02*
X321337699Y-331635037D01*
X270507919Y-347530000D02*
X279499739Y-347530000D01*
X323850000Y-325569806D02*
X323850000Y-309880000D01*
X300073773Y-350645000D02*
X287020000Y-350645000D01*
X300073773Y-350644965D02*
G75*
G03*
X303921529Y-349051207I27J5441565D01*
G01*
X235231054Y-344451074D02*
G75*
G03*
X235909614Y-344732129I678546J678574D01*
G01*
X267130611Y-346131043D02*
G75*
G03*
X263753261Y-344732129I-3377311J-3377357D01*
G01*
X287019972Y-350645028D02*
G75*
G03*
X279499739Y-347530000I-7520272J-7520172D01*
G01*
X321337689Y-331635027D02*
G75*
G03*
X323850000Y-325569806I-6065189J6065227D01*
G01*
X267130573Y-346131081D02*
G75*
G03*
X270507919Y-347530000I3377327J3377381D01*
G01*
%TO.N,Net-(R2-Pad1)*%
X280670000Y-340360000D02*
X278284004Y-337974004D01*
X278284001Y-337974007D02*
G75*
G03*
X271780000Y-335280000I-6503901J-6503893D01*
G01*
%TO.N,Net-(UDA1334Breakout1-PadWSEL)*%
X271344232Y-334010000D02*
X271388030Y-334010000D01*
X271344232Y-334010032D02*
G75*
G03*
X259080000Y-339090000I-32J-17344268D01*
G01*
X287019989Y-340485011D02*
G75*
G03*
X271388030Y-334010000I-15631989J-15631889D01*
G01*
%TO.N,Net-(SW1-PadC)*%
X270348963Y-345565000D02*
X287020000Y-345565000D01*
X266501207Y-343971207D02*
X261620000Y-339090000D01*
X266501215Y-343971199D02*
G75*
G03*
X270348963Y-345565000I3847785J3847799D01*
G01*
%TO.N,Net-(J1-PadTN)*%
X277407074Y-347980000D02*
X276488025Y-347980000D01*
X286605177Y-351790000D02*
X317171295Y-351790000D01*
X338295855Y-351175000D02*
X318656036Y-351175000D01*
X271129889Y-351790000D02*
X256093963Y-351790000D01*
X252246207Y-350196207D02*
X248880000Y-346830000D01*
X274676921Y-348893078D02*
X274955000Y-348615000D01*
X276488025Y-347980011D02*
G75*
G03*
X274955000Y-348615000I-25J-2167989D01*
G01*
X273963096Y-350616465D02*
G75*
G03*
X274320000Y-349754763I-861696J861665D01*
G01*
X284816280Y-351049009D02*
G75*
G03*
X277407074Y-347980000I-7409180J-7409091D01*
G01*
X252246215Y-350196199D02*
G75*
G03*
X256093963Y-351790000I3847785J3847799D01*
G01*
X284816285Y-351049004D02*
G75*
G03*
X286605177Y-351790000I1788915J1788904D01*
G01*
X340360015Y-352029985D02*
G75*
G03*
X338295855Y-351175000I-2064115J-2064115D01*
G01*
X318656036Y-351175035D02*
G75*
G03*
X317913666Y-351482500I-36J-1049865D01*
G01*
X271129889Y-351789996D02*
G75*
G03*
X273963077Y-350616446I11J4006696D01*
G01*
X274676941Y-348893098D02*
G75*
G03*
X274320000Y-349754763I861659J-861702D01*
G01*
X317171295Y-351789988D02*
G75*
G03*
X317913666Y-351482500I5J1049888D01*
G01*
%TO.N,Net-(R1-Pad1)*%
X260441917Y-287675000D02*
X260713350Y-287675003D01*
X291138182Y-304800000D02*
X304800000Y-304800000D01*
X252864707Y-294505291D02*
X259166849Y-288203150D01*
X271939826Y-298425992D02*
X261525065Y-288011231D01*
X271939826Y-298425992D02*
G75*
G03*
X278130000Y-300990000I6190074J6190092D01*
G01*
X252864715Y-294505299D02*
G75*
G03*
X251500000Y-297800000I3294685J-3294701D01*
G01*
X261525054Y-288011242D02*
G75*
G03*
X260713350Y-287675003I-811754J-811758D01*
G01*
X281940014Y-300989986D02*
G75*
G03*
X291138182Y-304800000I9198186J9198186D01*
G01*
X260441917Y-287675007D02*
G75*
G03*
X259166850Y-288203151I-17J-1803193D01*
G01*
%TO.N,C5*%
X281573792Y-324878792D02*
X287020000Y-330325000D01*
X279980000Y-321031036D02*
X279980000Y-289000000D01*
X279979990Y-321031036D02*
G75*
G03*
X281573793Y-324878791I5441610J36D01*
G01*
%TO.N,C3*%
X285933000Y-319390400D02*
X285933000Y-323389374D01*
X313604001Y-299805998D02*
X300308894Y-313101105D01*
X286476500Y-324701500D02*
X287020000Y-325245000D01*
X285879400Y-319078002D02*
G75*
G03*
X285841500Y-319169500I0J-53598D01*
G01*
X285933011Y-323389374D02*
G75*
G03*
X286476500Y-324701500I1855589J-26D01*
G01*
X285932999Y-319390400D02*
G75*
G03*
X285841499Y-319169501I-312399J0D01*
G01*
X285879400Y-319077993D02*
G75*
G03*
X300308893Y-313101104I0J20406393D01*
G01*
X313604007Y-299806004D02*
G75*
G03*
X318080000Y-289000000I-10806007J10806004D01*
G01*
%TO.N,C2*%
X295478674Y-319201325D02*
X323387785Y-291292214D01*
X337130000Y-285599994D02*
G75*
G03*
X323387785Y-291292214I0J-19434406D01*
G01*
X287020000Y-322704966D02*
G75*
G03*
X295478674Y-319201325I100J11962266D01*
G01*
%TO.N,C8*%
X308877000Y-325328823D02*
X308877000Y-330866411D01*
X308108500Y-323473500D02*
X307340000Y-322705000D01*
X295929692Y-336550000D02*
X286385000Y-336550000D01*
X242243109Y-291773109D02*
X285300987Y-334830987D01*
X308510987Y-331412000D02*
X308333842Y-331412000D01*
X285750007Y-335915000D02*
G75*
G03*
X285300987Y-334830987I-1533007J0D01*
G01*
X308581001Y-331440999D02*
G75*
G03*
X308638999Y-331440999I28999J29000D01*
G01*
X226350020Y-285189980D02*
G75*
G03*
X229548857Y-286515000I3198880J3198880D01*
G01*
X308876990Y-325328823D02*
G75*
G03*
X308108500Y-323473500I-2623790J23D01*
G01*
X285750000Y-335915000D02*
G75*
G03*
X286385000Y-336550000I635000J0D01*
G01*
X308638995Y-331440995D02*
G75*
G03*
X308877000Y-330866411I-574595J574595D01*
G01*
X308333842Y-331412030D02*
G75*
G03*
X302630530Y-333774390I-42J-8065670D01*
G01*
X242243102Y-291773116D02*
G75*
G03*
X229548857Y-286515000I-12694202J-12694184D01*
G01*
X295929692Y-336550005D02*
G75*
G03*
X302630530Y-333774390I8J9476305D01*
G01*
X308581004Y-331440996D02*
G75*
G03*
X308510987Y-331412000I-70004J-70004D01*
G01*
%TO.N,C6*%
X286163263Y-331412000D02*
X298583704Y-331412000D01*
X261032500Y-289392500D02*
X260640000Y-289000000D01*
X285457778Y-330293252D02*
X272682415Y-317517889D01*
X261425008Y-290340078D02*
G75*
G03*
X261032499Y-289392501I-1340108J-22D01*
G01*
X298583704Y-331412007D02*
G75*
G03*
X307340000Y-327785000I-4J12383207D01*
G01*
X285749975Y-330998737D02*
G75*
G03*
X285457778Y-330293252I-997675J37D01*
G01*
X261425006Y-290340078D02*
G75*
G03*
X272682416Y-317517888I38435194J-22D01*
G01*
X285750000Y-330998737D02*
G75*
G03*
X286163263Y-331412000I413300J37D01*
G01*
%TO.N,C7*%
X241590000Y-289425000D02*
X241590000Y-289000000D01*
X280670000Y-328930000D02*
X241890520Y-290150520D01*
X241589989Y-289425000D02*
G75*
G03*
X241890521Y-290150519I1026011J0D01*
G01*
%TO.N,Net-(SW67-B)*%
X261076500Y-319313500D02*
X261620000Y-318770000D01*
X252404451Y-322905548D02*
X236528097Y-338781902D01*
X259764374Y-319857000D02*
G75*
G03*
X252404451Y-322905548I-74J-10408400D01*
G01*
X236528090Y-338781895D02*
G75*
G03*
X231140000Y-351790000I13008010J-13008005D01*
G01*
X259764374Y-319856989D02*
G75*
G03*
X261076500Y-319313500I26J1855589D01*
G01*
%TO.N,Net-(J1-PadG)*%
X279203144Y-356205000D02*
X274860001Y-356205000D01*
X346710000Y-342510080D02*
X346710000Y-341630000D01*
X253008963Y-356205000D02*
X274860001Y-356205000D01*
X331251244Y-356205000D02*
X279203144Y-356205000D01*
X249161207Y-354611207D02*
X246380000Y-351830000D01*
X276860000Y-354205001D02*
X276860000Y-349250000D01*
X274860001Y-356205000D02*
G75*
G03*
X276860000Y-354205001I-1J2000000D01*
G01*
X343064226Y-351311921D02*
G75*
G03*
X346710000Y-342510080I-8802026J8801821D01*
G01*
X276860046Y-354204997D02*
G75*
G03*
X279203144Y-356204999I2184054J186197D01*
G01*
X249161215Y-354611199D02*
G75*
G03*
X253008963Y-356205000I3847785J3847799D01*
G01*
X331251244Y-356205019D02*
G75*
G03*
X343064213Y-351311908I-44J16706119D01*
G01*
%TD*%
%TA.AperFunction,Conductor*%
%TO.N,Net-(SW1-PadC)*%
G36*
X262321634Y-338803077D02*
G01*
X262327959Y-338809417D01*
X262328150Y-338809911D01*
X262783496Y-340072253D01*
X262783080Y-340081198D01*
X262780763Y-340084496D01*
X262614496Y-340250763D01*
X262606223Y-340254190D01*
X262602253Y-340253496D01*
X261339911Y-339798150D01*
X261333291Y-339792119D01*
X261332875Y-339783174D01*
X261333066Y-339782680D01*
X261617437Y-339093788D01*
X261623761Y-339087448D01*
X262312680Y-338803066D01*
X262321634Y-338803077D01*
G37*
%TD.AperFunction*%
%TD*%
%TA.AperFunction,Conductor*%
%TO.N,C3*%
G36*
X286187381Y-324032352D02*
G01*
X287134809Y-324461013D01*
X287301292Y-324536338D01*
X287307417Y-324542871D01*
X287307283Y-324551465D01*
X287022238Y-325241429D01*
X287015911Y-325247767D01*
X287015887Y-325247777D01*
X286328434Y-325531475D01*
X286319479Y-325531464D01*
X286313156Y-325525123D01*
X286312644Y-325523593D01*
X285954360Y-324135785D01*
X285955610Y-324126919D01*
X285961211Y-324122052D01*
X286178107Y-324032213D01*
X286187058Y-324032213D01*
X286187381Y-324032352D01*
G37*
%TD.AperFunction*%
%TD*%
%TA.AperFunction,Conductor*%
%TO.N,R5*%
G36*
X235848001Y-181241741D02*
G01*
X235854327Y-181248079D01*
X235854383Y-181248219D01*
X236571935Y-183050852D01*
X236571811Y-183059806D01*
X236569338Y-183063452D01*
X236403452Y-183229338D01*
X236395179Y-183232765D01*
X236390852Y-183231935D01*
X234588219Y-182514383D01*
X234581800Y-182508140D01*
X234581676Y-182499186D01*
X234581697Y-182499132D01*
X234947438Y-181613782D01*
X234953762Y-181607446D01*
X235839048Y-181241732D01*
X235848001Y-181241741D01*
G37*
%TD.AperFunction*%
%TD*%
%TA.AperFunction,Conductor*%
%TO.N,Net-(R1-Pad1)*%
G36*
X282306890Y-300841728D02*
G01*
X282313207Y-300848074D01*
X282313496Y-300848853D01*
X282466941Y-301312783D01*
X282466286Y-301321714D01*
X282464557Y-301324253D01*
X282307353Y-301500162D01*
X282299285Y-301504048D01*
X282295440Y-301503623D01*
X281799550Y-301363128D01*
X281792524Y-301357576D01*
X281791482Y-301348682D01*
X281791919Y-301347419D01*
X281801451Y-301324253D01*
X281937399Y-300993843D01*
X281943714Y-300987498D01*
X282297935Y-300841708D01*
X282306890Y-300841728D01*
G37*
%TD.AperFunction*%
%TD*%
%TA.AperFunction,Conductor*%
%TO.N,C3*%
G36*
X318084590Y-289000869D02*
G01*
X318990900Y-289377292D01*
X318997226Y-289383630D01*
X318997217Y-289392585D01*
X318996224Y-289394470D01*
X318104799Y-290767069D01*
X318097419Y-290772140D01*
X318093764Y-290772332D01*
X317858579Y-290747612D01*
X317850709Y-290743339D01*
X317849380Y-290741294D01*
X317161871Y-289393953D01*
X317161164Y-289385026D01*
X317166975Y-289378213D01*
X317167795Y-289377834D01*
X318075617Y-289000868D01*
X318084570Y-289000861D01*
X318084590Y-289000869D01*
G37*
%TD.AperFunction*%
%TD*%
%TA.AperFunction,Conductor*%
%TO.N,Net-(J1-PadG)*%
G36*
X247429360Y-352037977D02*
G01*
X247436805Y-352042951D01*
X247438761Y-352048831D01*
X247475783Y-352744076D01*
X247472801Y-352752520D01*
X247472373Y-352752971D01*
X247304866Y-352920478D01*
X247296593Y-352923905D01*
X247292019Y-352922974D01*
X246142128Y-352434527D01*
X246135853Y-352428138D01*
X246135885Y-352419298D01*
X246375626Y-351838180D01*
X246381949Y-351831840D01*
X246388723Y-351831167D01*
X247429360Y-352037977D01*
G37*
%TD.AperFunction*%
%TD*%
%TA.AperFunction,Conductor*%
%TO.N,R8*%
G36*
X232765239Y-145995127D02*
G01*
X232770268Y-146001976D01*
X232830901Y-146228267D01*
X232830012Y-146236632D01*
X232045316Y-147767350D01*
X232038492Y-147773149D01*
X232029607Y-147772445D01*
X232019573Y-147767350D01*
X231143364Y-147322456D01*
X231137540Y-147315656D01*
X230850578Y-146432231D01*
X230851282Y-146423303D01*
X230858091Y-146417488D01*
X230859142Y-146417200D01*
X232756418Y-145993585D01*
X232765239Y-145995127D01*
G37*
%TD.AperFunction*%
%TD*%
%TA.AperFunction,Conductor*%
%TO.N,Net-(UDA1334Breakout1-PadWSEL)*%
G36*
X260043217Y-338037511D02*
G01*
X260046530Y-338040289D01*
X260196063Y-338222494D01*
X260198663Y-338231063D01*
X260198025Y-338233886D01*
X259788150Y-339370087D01*
X259782119Y-339376707D01*
X259773174Y-339377123D01*
X259772679Y-339376932D01*
X259083721Y-339092489D01*
X259077382Y-339086164D01*
X259077371Y-339086138D01*
X258793418Y-338398173D01*
X258793429Y-338389221D01*
X258799769Y-338382897D01*
X258801066Y-338382448D01*
X260034325Y-338036446D01*
X260043217Y-338037511D01*
G37*
%TD.AperFunction*%
%TD*%
%TA.AperFunction,Conductor*%
%TO.N,Net-(R1-Pad2)*%
G36*
X235523308Y-343613235D02*
G01*
X235523901Y-343613874D01*
X236374846Y-344603840D01*
X236377673Y-344611467D01*
X236377673Y-344846317D01*
X236374246Y-344854590D01*
X236366895Y-344857981D01*
X234962606Y-344969003D01*
X234954089Y-344966238D01*
X234950020Y-344958261D01*
X234949984Y-344957354D01*
X234949006Y-344174860D01*
X234952422Y-344166583D01*
X235506764Y-343613220D01*
X235515038Y-343609801D01*
X235523308Y-343613235D01*
G37*
%TD.AperFunction*%
%TD*%
%TA.AperFunction,Conductor*%
%TO.N,R5*%
G36*
X366137679Y-202307670D02*
G01*
X367022712Y-203191722D01*
X367026143Y-203199994D01*
X367022721Y-203208269D01*
X367022712Y-203208278D01*
X366137679Y-204092329D01*
X366129404Y-204095751D01*
X366121775Y-204092917D01*
X365234065Y-203328500D01*
X365230032Y-203320505D01*
X365230000Y-203319634D01*
X365230000Y-203080365D01*
X365233427Y-203072092D01*
X365234056Y-203071506D01*
X366121776Y-202307081D01*
X366130281Y-202304280D01*
X366137679Y-202307670D01*
G37*
%TD.AperFunction*%
%TD*%
%TA.AperFunction,Conductor*%
%TO.N,C6*%
G36*
X306647241Y-327498034D02*
G01*
X307336286Y-327782521D01*
X307342625Y-327788846D01*
X307342636Y-327788872D01*
X307626443Y-328476490D01*
X307626432Y-328485445D01*
X307620092Y-328491769D01*
X307618486Y-328492300D01*
X306392369Y-328801150D01*
X306383509Y-328799847D01*
X306380364Y-328797099D01*
X306233285Y-328612670D01*
X306230806Y-328604065D01*
X306231440Y-328601366D01*
X306631821Y-327504849D01*
X306637877Y-327498254D01*
X306646824Y-327497873D01*
X306647241Y-327498034D01*
G37*
%TD.AperFunction*%
%TD*%
%TA.AperFunction,Conductor*%
%TO.N,Net-(R1-Pad1)*%
G36*
X304645294Y-304434728D02*
G01*
X304651280Y-304440890D01*
X304799123Y-304795498D01*
X304799144Y-304804452D01*
X304799123Y-304804502D01*
X304651280Y-305159109D01*
X304644933Y-305165427D01*
X304636344Y-305165551D01*
X304007563Y-304927858D01*
X304001036Y-304921727D01*
X304000000Y-304916914D01*
X304000000Y-304683085D01*
X304003427Y-304674812D01*
X304007563Y-304672141D01*
X304636345Y-304434448D01*
X304645294Y-304434728D01*
G37*
%TD.AperFunction*%
%TD*%
%TA.AperFunction,Conductor*%
%TO.N,R7*%
G36*
X366137679Y-164207670D02*
G01*
X367022712Y-165091722D01*
X367026143Y-165099994D01*
X367022721Y-165108269D01*
X367022712Y-165108278D01*
X366137679Y-165992329D01*
X366129404Y-165995751D01*
X366121775Y-165992917D01*
X365234065Y-165228500D01*
X365230032Y-165220505D01*
X365230000Y-165219634D01*
X365230000Y-164980365D01*
X365233427Y-164972092D01*
X365234056Y-164971506D01*
X366121776Y-164207081D01*
X366130281Y-164204280D01*
X366137679Y-164207670D01*
G37*
%TD.AperFunction*%
%TD*%
%TA.AperFunction,Conductor*%
%TO.N,Net-(SW67-B)*%
G36*
X231090930Y-350205765D02*
G01*
X231328169Y-350227748D01*
X231336091Y-350231923D01*
X231336926Y-350233062D01*
X231828124Y-350995559D01*
X231829723Y-351004370D01*
X231827074Y-351009622D01*
X231151247Y-351778100D01*
X231143210Y-351782049D01*
X231134734Y-351779159D01*
X231132056Y-351775723D01*
X230613264Y-350766662D01*
X230612530Y-350757738D01*
X230614785Y-350753701D01*
X231080971Y-350209801D01*
X231088956Y-350205750D01*
X231090930Y-350205765D01*
G37*
%TD.AperFunction*%
%TD*%
%TA.AperFunction,Conductor*%
%TO.N,R1*%
G36*
X235853981Y-276443478D02*
G01*
X235854400Y-276444480D01*
X236367205Y-277850047D01*
X236366822Y-277858994D01*
X236365942Y-277860557D01*
X236234648Y-278057053D01*
X236227203Y-278062028D01*
X236222740Y-278062048D01*
X234643108Y-277762542D01*
X234635618Y-277757634D01*
X234633793Y-277748867D01*
X234634258Y-277747145D01*
X234947545Y-276864021D01*
X234953538Y-276857373D01*
X235838399Y-276437917D01*
X235847341Y-276437470D01*
X235853981Y-276443478D01*
G37*
%TD.AperFunction*%
%TD*%
%TA.AperFunction,Conductor*%
%TO.N,R6*%
G36*
X367938224Y-183257082D02*
G01*
X368825935Y-184021500D01*
X368829968Y-184029494D01*
X368830000Y-184030365D01*
X368830000Y-184269634D01*
X368826573Y-184277907D01*
X368825935Y-184278500D01*
X367938224Y-185042917D01*
X367929718Y-185045719D01*
X367922320Y-185042329D01*
X367037287Y-184158278D01*
X367033856Y-184150006D01*
X367037278Y-184141731D01*
X367037287Y-184141722D01*
X367154139Y-184025000D01*
X367922322Y-183257668D01*
X367930595Y-183254248D01*
X367938224Y-183257082D01*
G37*
%TD.AperFunction*%
%TD*%
%TA.AperFunction,Conductor*%
%TO.N,R6*%
G36*
X252738269Y-166377278D02*
G01*
X252738278Y-166377287D01*
X253622329Y-167262320D01*
X253625751Y-167270595D01*
X253622917Y-167278224D01*
X252858500Y-168165935D01*
X252850505Y-168169968D01*
X252849634Y-168170000D01*
X252610366Y-168170000D01*
X252602093Y-168166573D01*
X252601500Y-168165935D01*
X251837082Y-167278224D01*
X251834280Y-167269718D01*
X251837668Y-167262322D01*
X252721722Y-166377286D01*
X252729994Y-166373856D01*
X252738269Y-166377278D01*
G37*
%TD.AperFunction*%
%TD*%
%TA.AperFunction,Conductor*%
%TO.N,Net-(SW1-PadC)*%
G36*
X286732879Y-344871824D02*
G01*
X286733093Y-344872309D01*
X287019133Y-345560510D01*
X287019144Y-345569464D01*
X287019133Y-345569491D01*
X286733093Y-346257691D01*
X286726753Y-346264015D01*
X286717798Y-346264004D01*
X286717314Y-346263790D01*
X285502725Y-345693159D01*
X285496694Y-345686539D01*
X285496000Y-345682569D01*
X285496000Y-345447430D01*
X285499427Y-345439157D01*
X285502722Y-345436841D01*
X286717316Y-344866208D01*
X286726259Y-344865793D01*
X286732879Y-344871824D01*
G37*
%TD.AperFunction*%
%TD*%
%TA.AperFunction,Conductor*%
%TO.N,R8*%
G36*
X366138679Y-145157670D02*
G01*
X367023712Y-146041722D01*
X367027143Y-146049994D01*
X367023721Y-146058269D01*
X367023712Y-146058278D01*
X366138679Y-146942329D01*
X366130404Y-146945751D01*
X366122775Y-146942917D01*
X365235065Y-146178500D01*
X365231032Y-146170505D01*
X365231000Y-146169634D01*
X365231000Y-145930365D01*
X365234427Y-145922092D01*
X365235056Y-145921506D01*
X366122776Y-145157081D01*
X366131281Y-145154280D01*
X366138679Y-145157670D01*
G37*
%TD.AperFunction*%
%TD*%
%TA.AperFunction,Conductor*%
%TO.N,Net-(R1-Pad2)*%
G36*
X324506690Y-310151898D02*
G01*
X324577753Y-310181430D01*
X324584078Y-310187769D01*
X324584067Y-310196724D01*
X324583833Y-310197251D01*
X323978172Y-311473317D01*
X323971529Y-311479321D01*
X323967602Y-311480000D01*
X323732398Y-311480000D01*
X323724125Y-311476573D01*
X323721828Y-311473317D01*
X323116166Y-310197251D01*
X323115715Y-310188307D01*
X323121719Y-310181664D01*
X323122234Y-310181434D01*
X323845512Y-309880864D01*
X323854461Y-309880854D01*
X324506690Y-310151898D01*
G37*
%TD.AperFunction*%
%TD*%
%TA.AperFunction,Conductor*%
%TO.N,R5*%
G36*
X220617536Y-230243758D02*
G01*
X221337814Y-230602980D01*
X221340752Y-230605066D01*
X221510694Y-230770515D01*
X221514231Y-230778741D01*
X221511406Y-230786524D01*
X220617232Y-231827021D01*
X220609240Y-231831062D01*
X220601212Y-231828659D01*
X219719838Y-231148842D01*
X219715381Y-231141077D01*
X219717721Y-231132433D01*
X219718706Y-231131312D01*
X220604044Y-230245955D01*
X220612316Y-230242529D01*
X220617536Y-230243758D01*
G37*
%TD.AperFunction*%
%TD*%
%TA.AperFunction,Conductor*%
%TO.N,C2*%
G36*
X287322210Y-322005972D02*
G01*
X287322673Y-322006176D01*
X288372526Y-322496775D01*
X288378571Y-322503382D01*
X288379199Y-322506065D01*
X288405615Y-322740528D01*
X288403136Y-322749133D01*
X288400036Y-322751854D01*
X287323239Y-323401971D01*
X287314386Y-323403313D01*
X287307176Y-323398002D01*
X287306388Y-323396446D01*
X287037306Y-322749133D01*
X287020872Y-322709599D01*
X287020862Y-322700647D01*
X287306917Y-322012284D01*
X287313255Y-322005961D01*
X287322210Y-322005972D01*
G37*
%TD.AperFunction*%
%TD*%
%TA.AperFunction,Conductor*%
%TO.N,R4*%
G36*
X367926583Y-223237010D02*
G01*
X367932358Y-223243854D01*
X367932660Y-223245000D01*
X368330714Y-225140902D01*
X368329061Y-225149703D01*
X368322292Y-225154607D01*
X368095911Y-225215265D01*
X368087469Y-225214336D01*
X366576039Y-224425384D01*
X366570291Y-224418518D01*
X366571050Y-224409657D01*
X367027520Y-223523349D01*
X367034350Y-223517567D01*
X367917662Y-223236256D01*
X367926583Y-223237010D01*
G37*
%TD.AperFunction*%
%TD*%
%TA.AperFunction,Conductor*%
%TO.N,C7*%
G36*
X280200071Y-328279252D02*
G01*
X280812760Y-328555793D01*
X280818891Y-328562320D01*
X280818767Y-328570909D01*
X280672563Y-328926195D01*
X280666245Y-328932542D01*
X280666195Y-328932563D01*
X280310909Y-329078767D01*
X280301955Y-329078746D01*
X280295793Y-329072760D01*
X280231676Y-328930707D01*
X280069279Y-328570909D01*
X280019252Y-328460071D01*
X280018972Y-328451121D01*
X280021641Y-328446987D01*
X280186986Y-328281642D01*
X280195258Y-328278216D01*
X280200071Y-328279252D01*
G37*
%TD.AperFunction*%
%TD*%
%TA.AperFunction,Conductor*%
%TO.N,R3*%
G36*
X366137679Y-241677670D02*
G01*
X367022712Y-242561722D01*
X367026143Y-242569994D01*
X367022721Y-242578269D01*
X367022712Y-242578278D01*
X366137679Y-243462329D01*
X366129404Y-243465751D01*
X366121775Y-243462917D01*
X365234065Y-242698500D01*
X365230032Y-242690505D01*
X365230000Y-242689634D01*
X365230000Y-242450365D01*
X365233427Y-242442092D01*
X365234056Y-242441506D01*
X366121776Y-241677081D01*
X366130281Y-241674280D01*
X366137679Y-241677670D01*
G37*
%TD.AperFunction*%
%TD*%
%TA.AperFunction,Conductor*%
%TO.N,C5*%
G36*
X280860323Y-289364594D02*
G01*
X280892346Y-289377893D01*
X280898673Y-289384231D01*
X280898664Y-289393185D01*
X280898349Y-289393880D01*
X280108220Y-290993482D01*
X280101484Y-290999382D01*
X280097730Y-291000000D01*
X279862270Y-291000000D01*
X279853997Y-290996573D01*
X279851780Y-290993482D01*
X279061649Y-289393878D01*
X279061058Y-289384944D01*
X279066958Y-289378208D01*
X279067642Y-289377897D01*
X279975514Y-289000862D01*
X279984464Y-289000854D01*
X280860323Y-289364594D01*
G37*
%TD.AperFunction*%
%TD*%
%TA.AperFunction,Conductor*%
%TO.N,C7*%
G36*
X242577922Y-288999991D02*
G01*
X242586192Y-289003424D01*
X242589613Y-289011699D01*
X242589607Y-289012071D01*
X242537463Y-290615913D01*
X242534042Y-290623806D01*
X242367654Y-290790194D01*
X242359381Y-290793621D01*
X242352435Y-290791336D01*
X240893823Y-289715171D01*
X240889200Y-289707502D01*
X240891354Y-289698810D01*
X240892476Y-289697503D01*
X241585862Y-289002730D01*
X241594128Y-288999296D01*
X242577922Y-288999991D01*
G37*
%TD.AperFunction*%
%TD*%
%TA.AperFunction,Conductor*%
%TO.N,R7*%
G36*
X235858224Y-164207082D02*
G01*
X236745935Y-164971500D01*
X236749968Y-164979494D01*
X236750000Y-164980365D01*
X236750000Y-165219634D01*
X236746573Y-165227907D01*
X236745935Y-165228500D01*
X235858224Y-165992917D01*
X235849718Y-165995719D01*
X235842320Y-165992329D01*
X234957287Y-165108278D01*
X234953856Y-165100006D01*
X234957278Y-165091731D01*
X234957287Y-165091722D01*
X235074139Y-164975000D01*
X235842322Y-164207668D01*
X235850595Y-164204248D01*
X235858224Y-164207082D01*
G37*
%TD.AperFunction*%
%TD*%
%TA.AperFunction,Conductor*%
%TO.N,R6*%
G36*
X366137679Y-183257670D02*
G01*
X367022712Y-184141722D01*
X367026143Y-184149994D01*
X367022721Y-184158269D01*
X367022712Y-184158278D01*
X366137679Y-185042329D01*
X366129404Y-185045751D01*
X366121775Y-185042917D01*
X365234065Y-184278500D01*
X365230032Y-184270505D01*
X365230000Y-184269634D01*
X365230000Y-184030365D01*
X365233427Y-184022092D01*
X365234056Y-184021506D01*
X366121776Y-183257081D01*
X366130281Y-183254280D01*
X366137679Y-183257670D01*
G37*
%TD.AperFunction*%
%TD*%
%TA.AperFunction,Conductor*%
%TO.N,Net-(R1-Pad2)*%
G36*
X323854619Y-325120875D02*
G01*
X324062648Y-325207337D01*
X324577127Y-325421169D01*
X324583451Y-325427508D01*
X324583440Y-325436462D01*
X324582922Y-325437548D01*
X323903079Y-326691578D01*
X323896123Y-326697218D01*
X323891266Y-326697602D01*
X323657939Y-326666884D01*
X323650184Y-326662407D01*
X323648741Y-326659959D01*
X323115653Y-325437059D01*
X323115488Y-325428106D01*
X323121703Y-325421659D01*
X323121847Y-325421597D01*
X323845641Y-325120873D01*
X323854595Y-325120865D01*
X323854619Y-325120875D01*
G37*
%TD.AperFunction*%
%TD*%
%TA.AperFunction,Conductor*%
%TO.N,Net-(SW67-B)*%
G36*
X260926463Y-318482715D02*
G01*
X261616429Y-318767761D01*
X261622767Y-318774088D01*
X261622777Y-318774112D01*
X261906475Y-319461565D01*
X261906464Y-319470520D01*
X261900123Y-319476843D01*
X261898585Y-319477357D01*
X260510786Y-319835639D01*
X260501919Y-319834389D01*
X260497052Y-319828787D01*
X260490086Y-319811971D01*
X260407213Y-319611893D01*
X260407213Y-319602941D01*
X260407343Y-319602638D01*
X260911338Y-318488706D01*
X260917871Y-318482582D01*
X260926463Y-318482715D01*
G37*
%TD.AperFunction*%
%TD*%
%TA.AperFunction,Conductor*%
%TO.N,Net-(J1-PadG)*%
G36*
X277552691Y-349536906D02*
G01*
X277559015Y-349543246D01*
X277559004Y-349552201D01*
X277558790Y-349552685D01*
X276988159Y-350767275D01*
X276981539Y-350773306D01*
X276977569Y-350774000D01*
X276742431Y-350774000D01*
X276734158Y-350770573D01*
X276731841Y-350767275D01*
X276457159Y-350182615D01*
X276161208Y-349552683D01*
X276160793Y-349543740D01*
X276166824Y-349537120D01*
X276167299Y-349536910D01*
X276855510Y-349250865D01*
X276864463Y-349250855D01*
X277552691Y-349536906D01*
G37*
%TD.AperFunction*%
%TD*%
%TA.AperFunction,Conductor*%
%TO.N,C8*%
G36*
X308040347Y-322418607D02*
G01*
X308046671Y-322424947D01*
X308047223Y-322426641D01*
X308307244Y-323493757D01*
X308305874Y-323502606D01*
X308303172Y-323505674D01*
X308117984Y-323653354D01*
X308109379Y-323655833D01*
X308108037Y-323655602D01*
X307061816Y-323412119D01*
X307054535Y-323406907D01*
X307053073Y-323398072D01*
X307053650Y-323396266D01*
X307337521Y-322708712D01*
X307343845Y-322702374D01*
X308031394Y-322418596D01*
X308040347Y-322418607D01*
G37*
%TD.AperFunction*%
%TD*%
%TA.AperFunction,Conductor*%
%TO.N,R1*%
G36*
X366137679Y-278507670D02*
G01*
X367022712Y-279391722D01*
X367026143Y-279399994D01*
X367022721Y-279408269D01*
X367022712Y-279408278D01*
X366137679Y-280292329D01*
X366129404Y-280295751D01*
X366121775Y-280292917D01*
X365234065Y-279528500D01*
X365230032Y-279520505D01*
X365230000Y-279519634D01*
X365230000Y-279280365D01*
X365233427Y-279272092D01*
X365234056Y-279271506D01*
X366121776Y-278507081D01*
X366130281Y-278504280D01*
X366137679Y-278507670D01*
G37*
%TD.AperFunction*%
%TD*%
%TA.AperFunction,Conductor*%
%TO.N,Net-(R1-Pad2)*%
G36*
X287322200Y-349945995D02*
G01*
X287322666Y-349946200D01*
X288537275Y-350516840D01*
X288543306Y-350523460D01*
X288544000Y-350527430D01*
X288544000Y-350762569D01*
X288540573Y-350770842D01*
X288537275Y-350773159D01*
X287322685Y-351343790D01*
X287313740Y-351344206D01*
X287307120Y-351338175D01*
X287306906Y-351337691D01*
X287070954Y-350770000D01*
X287020865Y-350649489D01*
X287020855Y-350640536D01*
X287020866Y-350640510D01*
X287306906Y-349952309D01*
X287313246Y-349945984D01*
X287322200Y-349945995D01*
G37*
%TD.AperFunction*%
%TD*%
%TA.AperFunction,Conductor*%
%TO.N,R2*%
G36*
X366137679Y-260727670D02*
G01*
X367022712Y-261611722D01*
X367026143Y-261619994D01*
X367022721Y-261628269D01*
X367022712Y-261628278D01*
X366137679Y-262512329D01*
X366129404Y-262515751D01*
X366121775Y-262512917D01*
X365234065Y-261748500D01*
X365230032Y-261740505D01*
X365230000Y-261739634D01*
X365230000Y-261500365D01*
X365233427Y-261492092D01*
X365234056Y-261491506D01*
X366121776Y-260727081D01*
X366130281Y-260724280D01*
X366137679Y-260727670D01*
G37*
%TD.AperFunction*%
%TD*%
%TA.AperFunction,Conductor*%
%TO.N,R5*%
G36*
X234057679Y-180717670D02*
G01*
X234942712Y-181601722D01*
X234946143Y-181609994D01*
X234942721Y-181618269D01*
X234942712Y-181618278D01*
X234057679Y-182502329D01*
X234049404Y-182505751D01*
X234041775Y-182502917D01*
X233154065Y-181738500D01*
X233150032Y-181730505D01*
X233150000Y-181729634D01*
X233150000Y-181490365D01*
X233153427Y-181482092D01*
X233154056Y-181481506D01*
X234041776Y-180717081D01*
X234050281Y-180714280D01*
X234057679Y-180717670D01*
G37*
%TD.AperFunction*%
%TD*%
%TA.AperFunction,Conductor*%
%TO.N,R4*%
G36*
X308753346Y-319920809D02*
G01*
X308759700Y-319927117D01*
X308760382Y-319929351D01*
X308806317Y-320160279D01*
X308804570Y-320169062D01*
X308800829Y-320172614D01*
X307643210Y-320862083D01*
X307634348Y-320863372D01*
X307627171Y-320858018D01*
X307626419Y-320856522D01*
X307340886Y-320169684D01*
X307340875Y-320160730D01*
X307627138Y-319471754D01*
X307633475Y-319465432D01*
X307642378Y-319465420D01*
X308753346Y-319920809D01*
G37*
%TD.AperFunction*%
%TD*%
%TA.AperFunction,Conductor*%
%TO.N,Net-(R1-Pad1)*%
G36*
X251711726Y-296062537D02*
G01*
X251933037Y-296143088D01*
X251939639Y-296149137D01*
X251940242Y-296150722D01*
X252328458Y-297445468D01*
X252327552Y-297454376D01*
X252321737Y-297459634D01*
X251506891Y-297797935D01*
X251497936Y-297797942D01*
X251494124Y-297795394D01*
X250870815Y-297170829D01*
X250867396Y-297162552D01*
X250869784Y-297155481D01*
X251698418Y-296066445D01*
X251706153Y-296061938D01*
X251711726Y-296062537D01*
G37*
%TD.AperFunction*%
%TD*%
%TA.AperFunction,Conductor*%
%TO.N,R2*%
G36*
X235848001Y-256171741D02*
G01*
X235854327Y-256178079D01*
X235854383Y-256178219D01*
X236571935Y-257980852D01*
X236571811Y-257989806D01*
X236569338Y-257993452D01*
X236403452Y-258159338D01*
X236395179Y-258162765D01*
X236390852Y-258161935D01*
X234588219Y-257444383D01*
X234581800Y-257438140D01*
X234581676Y-257429186D01*
X234581697Y-257429132D01*
X234947438Y-256543782D01*
X234953762Y-256537446D01*
X235839048Y-256171732D01*
X235848001Y-256171741D01*
G37*
%TD.AperFunction*%
%TD*%
%TA.AperFunction,Conductor*%
%TO.N,R6*%
G36*
X369415294Y-183784728D02*
G01*
X369421280Y-183790890D01*
X369569123Y-184145498D01*
X369569144Y-184154452D01*
X369569123Y-184154502D01*
X369421280Y-184509109D01*
X369414933Y-184515427D01*
X369406344Y-184515551D01*
X368777563Y-184277858D01*
X368771036Y-184271727D01*
X368770000Y-184266914D01*
X368770000Y-184033085D01*
X368773427Y-184024812D01*
X368777563Y-184022141D01*
X369406345Y-183784448D01*
X369415294Y-183784728D01*
G37*
%TD.AperFunction*%
%TD*%
%TA.AperFunction,Conductor*%
%TO.N,C5*%
G36*
X286037746Y-329161503D02*
G01*
X286045323Y-329164236D01*
X287300089Y-329616850D01*
X287306708Y-329622880D01*
X287307124Y-329631825D01*
X287306933Y-329632319D01*
X287022562Y-330321211D01*
X287016237Y-330327551D01*
X287016211Y-330327562D01*
X286327319Y-330611933D01*
X286318365Y-330611922D01*
X286312040Y-330605582D01*
X286311858Y-330605112D01*
X285960778Y-329631825D01*
X285856503Y-329342746D01*
X285856919Y-329333801D01*
X285859233Y-329330506D01*
X286025504Y-329164235D01*
X286033776Y-329160809D01*
X286037746Y-329161503D01*
G37*
%TD.AperFunction*%
%TD*%
%TA.AperFunction,Conductor*%
%TO.N,Net-(J1-PadTN)*%
G36*
X340349117Y-351229252D02*
G01*
X340357134Y-351233237D01*
X340360013Y-351240909D01*
X340360968Y-352025360D01*
X340357551Y-352033637D01*
X340357532Y-352033656D01*
X339804244Y-352585776D01*
X339795968Y-352589194D01*
X339787698Y-352585758D01*
X339786349Y-352584138D01*
X338959321Y-351385318D01*
X338957444Y-351376562D01*
X338957545Y-351376071D01*
X339009802Y-351147106D01*
X339014984Y-351139804D01*
X339022010Y-351138039D01*
X340349117Y-351229252D01*
G37*
%TD.AperFunction*%
%TD*%
%TA.AperFunction,Conductor*%
%TO.N,C6*%
G36*
X261627501Y-288999987D02*
G01*
X261635769Y-289003422D01*
X261639188Y-289011699D01*
X261639162Y-289012471D01*
X261550728Y-290328701D01*
X261546754Y-290336726D01*
X261539101Y-290339617D01*
X261302278Y-290340572D01*
X261297889Y-290339737D01*
X260268313Y-289928274D01*
X260261902Y-289922021D01*
X260261790Y-289913069D01*
X260637003Y-289006233D01*
X260643331Y-288999900D01*
X260647820Y-288999008D01*
X261627501Y-288999987D01*
G37*
%TD.AperFunction*%
%TD*%
%TA.AperFunction,Conductor*%
%TO.N,R5*%
G36*
X306647319Y-317338066D02*
G01*
X307336211Y-317622437D01*
X307342551Y-317628762D01*
X307342562Y-317628788D01*
X307626933Y-318317680D01*
X307626922Y-318326634D01*
X307620582Y-318332959D01*
X307620088Y-318333150D01*
X306357746Y-318788496D01*
X306348801Y-318788080D01*
X306345503Y-318785763D01*
X306179236Y-318619496D01*
X306175809Y-318611223D01*
X306176503Y-318607253D01*
X306277727Y-318326634D01*
X306631850Y-317344909D01*
X306637880Y-317338291D01*
X306646825Y-317337875D01*
X306647319Y-317338066D01*
G37*
%TD.AperFunction*%
%TD*%
%TA.AperFunction,Conductor*%
%TO.N,Net-(R2-Pad1)*%
G36*
X272070825Y-335002548D02*
G01*
X272317598Y-335169213D01*
X272322536Y-335176683D01*
X272322725Y-335179674D01*
X272307215Y-335416363D01*
X272303254Y-335424394D01*
X272301616Y-335425597D01*
X271944709Y-335642480D01*
X271935859Y-335643847D01*
X271928634Y-335638557D01*
X271927834Y-335636983D01*
X271835871Y-335416363D01*
X271782023Y-335287182D01*
X271782004Y-335278229D01*
X271784563Y-335274395D01*
X272056019Y-335003954D01*
X272064299Y-335000544D01*
X272070825Y-335002548D01*
G37*
%TD.AperFunction*%
%TD*%
%TA.AperFunction,Conductor*%
%TO.N,R4*%
G36*
X366137679Y-222627670D02*
G01*
X367022712Y-223511722D01*
X367026143Y-223519994D01*
X367022721Y-223528269D01*
X367022712Y-223528278D01*
X366137679Y-224412329D01*
X366129404Y-224415751D01*
X366121775Y-224412917D01*
X365234065Y-223648500D01*
X365230032Y-223640505D01*
X365230000Y-223639634D01*
X365230000Y-223400365D01*
X365233427Y-223392092D01*
X365234056Y-223391506D01*
X366121776Y-222627081D01*
X366130281Y-222624280D01*
X366137679Y-222627670D01*
G37*
%TD.AperFunction*%
%TD*%
%TA.AperFunction,Conductor*%
%TO.N,R6*%
G36*
X251837679Y-165477670D02*
G01*
X252722712Y-166361722D01*
X252726143Y-166369994D01*
X252722721Y-166378269D01*
X252722712Y-166378278D01*
X251837679Y-167262329D01*
X251829404Y-167265751D01*
X251821775Y-167262917D01*
X250934065Y-166498500D01*
X250930032Y-166490505D01*
X250930000Y-166489634D01*
X250930000Y-166250365D01*
X250933427Y-166242092D01*
X250934056Y-166241506D01*
X251821776Y-165477081D01*
X251830281Y-165474280D01*
X251837679Y-165477670D01*
G37*
%TD.AperFunction*%
%TD*%
%TA.AperFunction,Conductor*%
%TO.N,R4*%
G36*
X235858224Y-198497082D02*
G01*
X236745935Y-199261500D01*
X236749968Y-199269494D01*
X236750000Y-199270365D01*
X236750000Y-199509634D01*
X236746573Y-199517907D01*
X236745935Y-199518500D01*
X235858224Y-200282917D01*
X235849718Y-200285719D01*
X235842320Y-200282329D01*
X234957287Y-199398278D01*
X234953856Y-199390006D01*
X234957278Y-199381731D01*
X234957287Y-199381722D01*
X235074139Y-199265000D01*
X235842322Y-198497668D01*
X235850595Y-198494248D01*
X235858224Y-198497082D01*
G37*
%TD.AperFunction*%
%TD*%
%TA.AperFunction,Conductor*%
%TO.N,Net-(UDA1334Breakout1-PadWSEL)*%
G36*
X286072788Y-339418978D02*
G01*
X287299102Y-339777350D01*
X287306082Y-339782960D01*
X287307050Y-339791862D01*
X287306635Y-339793044D01*
X287022618Y-340481150D01*
X287016294Y-340487490D01*
X287016268Y-340487501D01*
X286327402Y-340771898D01*
X286318447Y-340771887D01*
X286312122Y-340765548D01*
X286311910Y-340764992D01*
X285906151Y-339613945D01*
X285906632Y-339605005D01*
X285908253Y-339602500D01*
X286060582Y-339422646D01*
X286068543Y-339418549D01*
X286072788Y-339418978D01*
G37*
%TD.AperFunction*%
%TD*%
%TA.AperFunction,Conductor*%
%TO.N,Net-(J1-PadTN)*%
G36*
X249677870Y-346503215D02*
G01*
X249684195Y-346509554D01*
X249684302Y-346509822D01*
X250273277Y-348042133D01*
X250273047Y-348051085D01*
X250270629Y-348054604D01*
X250103391Y-348221842D01*
X250095118Y-348225269D01*
X250093406Y-348225143D01*
X248988146Y-348061678D01*
X248980463Y-348057078D01*
X248978196Y-348051049D01*
X248879981Y-346837794D01*
X248882729Y-346829272D01*
X248887177Y-346826037D01*
X249668916Y-346503206D01*
X249677870Y-346503215D01*
G37*
%TD.AperFunction*%
%TD*%
%TA.AperFunction,Conductor*%
%TO.N,C8*%
G36*
X227273300Y-284811265D02*
G01*
X227278983Y-284816283D01*
X228015863Y-286110790D01*
X228016978Y-286119675D01*
X228016504Y-286121055D01*
X227926349Y-286338709D01*
X227920017Y-286345041D01*
X227914380Y-286345874D01*
X226360530Y-286191049D01*
X226352637Y-286186819D01*
X226349990Y-286179418D01*
X226349931Y-286115766D01*
X226349084Y-285197449D01*
X226352503Y-285189173D01*
X226356312Y-285186626D01*
X227264346Y-284811258D01*
X227273300Y-284811265D01*
G37*
%TD.AperFunction*%
%TD*%
%TA.AperFunction,Conductor*%
%TO.N,C2*%
G36*
X336751734Y-284687145D02*
G01*
X336752587Y-284688810D01*
X337115201Y-285561880D01*
X337129131Y-285595420D01*
X337129140Y-285604375D01*
X337129131Y-285604395D01*
X336752153Y-286512231D01*
X336745816Y-286518557D01*
X336736861Y-286518549D01*
X336736064Y-286518183D01*
X335344472Y-285813733D01*
X335338638Y-285806939D01*
X335338106Y-285804374D01*
X335316303Y-285569095D01*
X335318952Y-285560543D01*
X335321794Y-285558069D01*
X336735629Y-284683350D01*
X336744467Y-284681913D01*
X336751734Y-284687145D01*
G37*
%TD.AperFunction*%
%TD*%
%TA.AperFunction,Conductor*%
%TO.N,Net-(R2-Pad1)*%
G36*
X280200071Y-339709252D02*
G01*
X280812760Y-339985793D01*
X280818891Y-339992320D01*
X280818767Y-340000909D01*
X280672563Y-340356195D01*
X280666245Y-340362542D01*
X280666195Y-340362563D01*
X280310909Y-340508767D01*
X280301955Y-340508746D01*
X280295793Y-340502760D01*
X280231676Y-340360707D01*
X280069279Y-340000909D01*
X280019252Y-339890071D01*
X280018972Y-339881121D01*
X280021641Y-339876987D01*
X280186986Y-339711642D01*
X280195258Y-339708216D01*
X280200071Y-339709252D01*
G37*
%TD.AperFunction*%
%TD*%
%TA.AperFunction,Conductor*%
%TO.N,Net-(R1-Pad1)*%
G36*
X277981342Y-300631523D02*
G01*
X277982312Y-300633367D01*
X278127975Y-300982815D01*
X278127995Y-300991770D01*
X278125434Y-300995606D01*
X277854251Y-301265774D01*
X277845971Y-301269185D01*
X277839078Y-301266923D01*
X277613149Y-301101371D01*
X277608501Y-301093716D01*
X277608389Y-301091176D01*
X277623933Y-300853982D01*
X277627894Y-300845952D01*
X277629253Y-300844925D01*
X277965168Y-300628039D01*
X277973976Y-300626431D01*
X277981342Y-300631523D01*
G37*
%TD.AperFunction*%
%TD*%
%TA.AperFunction,Conductor*%
%TO.N,Net-(R1-Pad2)*%
G36*
X286078169Y-349648814D02*
G01*
X287298252Y-349937840D01*
X287305511Y-349943082D01*
X287306939Y-349951922D01*
X287306369Y-349953689D01*
X287022641Y-350641121D01*
X287016317Y-350647461D01*
X287016291Y-350647471D01*
X286327273Y-350931952D01*
X286318318Y-350931942D01*
X286311994Y-350925603D01*
X286311828Y-350925178D01*
X285918936Y-349849994D01*
X285919315Y-349841048D01*
X285920715Y-349838763D01*
X286066265Y-349652983D01*
X286074065Y-349648585D01*
X286078169Y-349648814D01*
G37*
%TD.AperFunction*%
%TD*%
%TA.AperFunction,Conductor*%
%TO.N,R3*%
G36*
X220615117Y-240821792D02*
G01*
X220615350Y-240822246D01*
X221266954Y-242160430D01*
X221267495Y-242169368D01*
X221267244Y-242170029D01*
X221176961Y-242387993D01*
X221170629Y-242394325D01*
X221164834Y-242395142D01*
X219457172Y-242201569D01*
X219449338Y-242197232D01*
X219446864Y-242188625D01*
X219447266Y-242186641D01*
X219707702Y-241304275D01*
X219713327Y-241297314D01*
X220599256Y-240817081D01*
X220608162Y-240816152D01*
X220615117Y-240821792D01*
G37*
%TD.AperFunction*%
%TD*%
%TA.AperFunction,Conductor*%
%TO.N,Net-(J1-PadG)*%
G36*
X347402155Y-341916683D02*
G01*
X347408478Y-341923022D01*
X347408467Y-341931977D01*
X347408011Y-341932946D01*
X346825980Y-343036000D01*
X346819088Y-343041718D01*
X346814976Y-343042222D01*
X346579568Y-343029003D01*
X346571500Y-343025117D01*
X346569810Y-343022654D01*
X346011811Y-341932946D01*
X346011776Y-341932878D01*
X346011056Y-341923954D01*
X346016858Y-341917133D01*
X346017685Y-341916750D01*
X346705566Y-341630867D01*
X346714518Y-341630857D01*
X347402155Y-341916683D01*
G37*
%TD.AperFunction*%
%TD*%
%TA.AperFunction,Conductor*%
%TO.N,R5*%
G36*
X218822474Y-230856387D02*
G01*
X219639754Y-231116587D01*
X219705700Y-231137583D01*
X219712544Y-231143359D01*
X219712553Y-231143375D01*
X220168938Y-232029540D01*
X220169679Y-232038464D01*
X220163893Y-232045299D01*
X220163835Y-232045328D01*
X218682198Y-232797932D01*
X218673270Y-232798624D01*
X218673035Y-232798544D01*
X218451357Y-232720975D01*
X218444680Y-232715008D01*
X218443743Y-232707668D01*
X218807461Y-230865272D01*
X218812425Y-230857821D01*
X218821205Y-230856062D01*
X218822474Y-230856387D01*
G37*
%TD.AperFunction*%
%TD*%
%TA.AperFunction,Conductor*%
%TO.N,R6*%
G36*
X219837907Y-224263427D02*
G01*
X219838500Y-224264065D01*
X220602917Y-225151775D01*
X220605719Y-225160281D01*
X220602329Y-225167679D01*
X219718278Y-226052712D01*
X219710006Y-226056143D01*
X219701731Y-226052721D01*
X219701722Y-226052712D01*
X218817670Y-225167679D01*
X218814248Y-225159404D01*
X218817081Y-225151776D01*
X219581500Y-224264065D01*
X219589495Y-224260032D01*
X219590366Y-224260000D01*
X219829634Y-224260000D01*
X219837907Y-224263427D01*
G37*
%TD.AperFunction*%
%TD*%
%TA.AperFunction,Conductor*%
%TO.N,Net-(R1-Pad2)*%
G36*
X323975875Y-323523427D02*
G01*
X323978172Y-323526683D01*
X324583833Y-324802748D01*
X324584284Y-324811692D01*
X324578280Y-324818335D01*
X324577753Y-324818569D01*
X323854490Y-325119134D01*
X323845536Y-325119144D01*
X323845510Y-325119134D01*
X323122246Y-324818569D01*
X323115921Y-324812230D01*
X323115932Y-324803275D01*
X323116154Y-324802773D01*
X323721828Y-323526682D01*
X323728471Y-323520679D01*
X323732398Y-323520000D01*
X323967602Y-323520000D01*
X323975875Y-323523427D01*
G37*
%TD.AperFunction*%
%TD*%
M02*
