%TF.GenerationSoftware,KiCad,Pcbnew,7.0.8*%
%TF.CreationDate,2023-11-23T10:38:48-06:00*%
%TF.ProjectId,calcvox-rounded,63616c63-766f-4782-9d72-6f756e646564,rev?*%
%TF.SameCoordinates,Original*%
%TF.FileFunction,Soldermask,Top*%
%TF.FilePolarity,Negative*%
%FSLAX46Y46*%
G04 Gerber Fmt 4.6, Leading zero omitted, Abs format (unit mm)*
G04 Created by KiCad (PCBNEW 7.0.8) date 2023-11-23 10:38:48*
%MOMM*%
%LPD*%
G01*
G04 APERTURE LIST*
%ADD10O,2.200000X1.200000*%
%ADD11O,1.200000X2.200000*%
%ADD12O,1.600000X2.300000*%
%ADD13O,1.600000X2.500000*%
%ADD14R,1.800000X1.800000*%
%ADD15O,1.800000X1.800000*%
%ADD16C,2.000000*%
%ADD17C,1.524000*%
%ADD18C,1.600000*%
%ADD19O,1.600000X1.600000*%
%ADD20C,2.700000*%
%ADD21C,3.000000*%
%ADD22C,1.800000*%
%ADD23O,2.200000X3.500000*%
%ADD24R,1.500000X2.500000*%
%ADD25O,1.500000X2.500000*%
G04 APERTURE END LIST*
D10*
%TO.C,J1*%
X246380000Y-351830000D03*
D11*
X241380000Y-346830000D03*
D12*
X243880000Y-346830000D03*
D11*
X251380000Y-346830000D03*
D13*
X248880000Y-346830000D03*
%TD*%
D14*
%TO.C,D40*%
X290830000Y-146050000D03*
D15*
X290830000Y-158750000D03*
%TD*%
D14*
%TO.C,D53*%
X219710000Y-231140000D03*
D15*
X232410000Y-231140000D03*
%TD*%
D16*
%TO.C,SW5*%
X356180000Y-236220000D03*
X356180000Y-229720000D03*
X360680000Y-236220000D03*
X360680000Y-229720000D03*
%TD*%
D14*
%TO.C,D49*%
X252730000Y-279400000D03*
D15*
X252730000Y-292100000D03*
%TD*%
D17*
%TO.C,LS1*%
X271780000Y-349250000D03*
X276860000Y-349250000D03*
%TD*%
D16*
%TO.C,SW55*%
X251460000Y-224790000D03*
X251460000Y-218290000D03*
X255960000Y-224790000D03*
X255960000Y-218290000D03*
%TD*%
D14*
%TO.C,D64*%
X231140000Y-147320000D03*
D15*
X231140000Y-160020000D03*
%TD*%
D14*
%TO.C,D61*%
X234950000Y-181610000D03*
D15*
X234950000Y-194310000D03*
%TD*%
D14*
%TO.C,D2*%
X367030000Y-261620000D03*
D15*
X367030000Y-274320000D03*
%TD*%
D14*
%TO.C,D47*%
X271780000Y-165100000D03*
D15*
X271780000Y-177800000D03*
%TD*%
D14*
%TO.C,D43*%
X271780000Y-242570000D03*
D15*
X271780000Y-255270000D03*
%TD*%
D14*
%TO.C,D37*%
X290830000Y-203200000D03*
D15*
X290830000Y-215900000D03*
%TD*%
D16*
%TO.C,SW52*%
X241590000Y-255980000D03*
X241590000Y-249480000D03*
X246090000Y-255980000D03*
X246090000Y-249480000D03*
%TD*%
D14*
%TO.C,D6*%
X367030000Y-184150000D03*
D15*
X367030000Y-196850000D03*
%TD*%
D14*
%TO.C,D44*%
X271780000Y-223520000D03*
D15*
X271780000Y-236220000D03*
%TD*%
D18*
%TO.C,R4*%
X265430000Y-349250000D03*
D19*
X257810000Y-349250000D03*
%TD*%
D14*
%TO.C,D15*%
X347980000Y-165100000D03*
D15*
X347980000Y-177800000D03*
%TD*%
D16*
%TO.C,SW39*%
X279980000Y-196850000D03*
X279980000Y-190350000D03*
X284480000Y-196850000D03*
X284480000Y-190350000D03*
%TD*%
%TO.C,SW35*%
X279980000Y-273050000D03*
X279980000Y-266550000D03*
X284480000Y-273050000D03*
X284480000Y-266550000D03*
%TD*%
%TO.C,SW36*%
X279980000Y-255270000D03*
X279980000Y-248770000D03*
X284480000Y-255270000D03*
X284480000Y-248770000D03*
%TD*%
D14*
%TO.C,D3*%
X367030000Y-242570000D03*
D15*
X367030000Y-255270000D03*
%TD*%
D14*
%TO.C,D45*%
X271780000Y-203200000D03*
D15*
X271780000Y-215900000D03*
%TD*%
D16*
%TO.C,SW46*%
X260930000Y-214630000D03*
X260930000Y-208130000D03*
X265430000Y-214630000D03*
X265430000Y-208130000D03*
%TD*%
D20*
%TO.C,REF\u002A\u002A*%
X215900000Y-143510000D03*
%TD*%
D16*
%TO.C,SW26*%
X299030000Y-289000000D03*
X299030000Y-282500000D03*
X303530000Y-289000000D03*
X303530000Y-282500000D03*
%TD*%
%TO.C,SW48*%
X260930000Y-177800000D03*
X260930000Y-171300000D03*
X265430000Y-177800000D03*
X265430000Y-171300000D03*
%TD*%
%TO.C,SW3*%
X356180000Y-274320000D03*
X356180000Y-267820000D03*
X360680000Y-274320000D03*
X360680000Y-267820000D03*
%TD*%
%TO.C,SW14*%
X337130000Y-215900000D03*
X337130000Y-209400000D03*
X341630000Y-215900000D03*
X341630000Y-209400000D03*
%TD*%
D14*
%TO.C,D24*%
X328930000Y-146050000D03*
D15*
X328930000Y-158750000D03*
%TD*%
D16*
%TO.C,SW31*%
X299030000Y-196850000D03*
X299030000Y-190350000D03*
X303530000Y-196850000D03*
X303530000Y-190350000D03*
%TD*%
%TO.C,SW65*%
X239050000Y-159460000D03*
X239050000Y-152960000D03*
X243550000Y-159460000D03*
X243550000Y-152960000D03*
%TD*%
D18*
%TO.C,R1*%
X316230000Y-309880000D03*
D19*
X323850000Y-309880000D03*
%TD*%
D14*
%TO.C,D26*%
X309880000Y-261620000D03*
D15*
X309880000Y-274320000D03*
%TD*%
D14*
%TO.C,D34*%
X290830000Y-261620000D03*
D15*
X290830000Y-274320000D03*
%TD*%
D14*
%TO.C,D16*%
X347980000Y-146050000D03*
D15*
X347980000Y-158750000D03*
%TD*%
D16*
%TO.C,SW4*%
X356180000Y-255270000D03*
X356180000Y-248770000D03*
X360680000Y-255270000D03*
X360680000Y-248770000D03*
%TD*%
%TO.C,SW32*%
X299030000Y-177800000D03*
X299030000Y-171300000D03*
X303530000Y-177800000D03*
X303530000Y-171300000D03*
%TD*%
D14*
%TO.C,D29*%
X309880000Y-203200000D03*
D15*
X309880000Y-215900000D03*
%TD*%
D14*
%TO.C,D22*%
X328930000Y-184150000D03*
D15*
X328930000Y-196850000D03*
%TD*%
D16*
%TO.C,SW25*%
X318080000Y-158750000D03*
X318080000Y-152250000D03*
X322580000Y-158750000D03*
X322580000Y-152250000D03*
%TD*%
%TO.C,SW54*%
X251460000Y-234950000D03*
X251460000Y-228450000D03*
X255960000Y-234950000D03*
X255960000Y-228450000D03*
%TD*%
D14*
%TO.C,D12*%
X347980000Y-223520000D03*
D15*
X347980000Y-236220000D03*
%TD*%
D14*
%TO.C,D35*%
X290830000Y-242570000D03*
D15*
X290830000Y-255270000D03*
%TD*%
D14*
%TO.C,D31*%
X309880000Y-165100000D03*
D15*
X309880000Y-177800000D03*
%TD*%
D21*
%TO.C,SW1*%
X248400000Y-304800000D03*
X259600000Y-304800000D03*
D22*
X251500000Y-312300000D03*
X256500000Y-312300000D03*
X254000000Y-312300000D03*
X251500000Y-297800000D03*
X256500000Y-297800000D03*
%TD*%
D14*
%TO.C,D56*%
X252730000Y-182880000D03*
D15*
X252730000Y-195580000D03*
%TD*%
D16*
%TO.C,SW38*%
X279980000Y-215900000D03*
X279980000Y-209400000D03*
X284480000Y-215900000D03*
X284480000Y-209400000D03*
%TD*%
D14*
%TO.C,D36*%
X290830000Y-223520000D03*
D15*
X290830000Y-236220000D03*
%TD*%
D14*
%TO.C,D50*%
X252730000Y-261620000D03*
D15*
X252730000Y-274320000D03*
%TD*%
D16*
%TO.C,SW10*%
X337130000Y-292100000D03*
X337130000Y-285600000D03*
X341630000Y-292100000D03*
X341630000Y-285600000D03*
%TD*%
%TO.C,SW7*%
X356180000Y-196850000D03*
X356180000Y-190350000D03*
X360680000Y-196850000D03*
X360680000Y-190350000D03*
%TD*%
D14*
%TO.C,D59*%
X219710000Y-241300000D03*
D15*
X232410000Y-241300000D03*
%TD*%
D16*
%TO.C,SW59*%
X226060000Y-266850000D03*
X226060000Y-260350000D03*
X230560000Y-266850000D03*
X230560000Y-260350000D03*
%TD*%
D14*
%TO.C,D8*%
X367031000Y-146050000D03*
D15*
X367031000Y-158750000D03*
%TD*%
D18*
%TO.C,R6*%
X257810000Y-353060000D03*
D19*
X265430000Y-353060000D03*
%TD*%
D16*
%TO.C,SW57*%
X241300000Y-196850000D03*
X241300000Y-190350000D03*
X245800000Y-196850000D03*
X245800000Y-190350000D03*
%TD*%
%TO.C,SW43*%
X260640000Y-273050000D03*
X260640000Y-266550000D03*
X265140000Y-273050000D03*
X265140000Y-266550000D03*
%TD*%
%TO.C,SW45*%
X261620000Y-234950000D03*
X261620000Y-228450000D03*
X266120000Y-234950000D03*
X266120000Y-228450000D03*
%TD*%
D18*
%TO.C,R3*%
X316230000Y-321310000D03*
D19*
X323850000Y-321310000D03*
%TD*%
D14*
%TO.C,D21*%
X328930000Y-203200000D03*
D15*
X328930000Y-215900000D03*
%TD*%
D16*
%TO.C,SW8*%
X356180000Y-177800000D03*
X356180000Y-171300000D03*
X360680000Y-177800000D03*
X360680000Y-171300000D03*
%TD*%
D18*
%TO.C,R2*%
X316230000Y-325120000D03*
D19*
X323850000Y-325120000D03*
%TD*%
D14*
%TO.C,D4*%
X367030000Y-223520000D03*
D15*
X367030000Y-236220000D03*
%TD*%
D14*
%TO.C,D63*%
X234950000Y-165100000D03*
D15*
X234950000Y-177800000D03*
%TD*%
D16*
%TO.C,SW44*%
X260930000Y-255270000D03*
X260930000Y-248770000D03*
X265430000Y-255270000D03*
X265430000Y-248770000D03*
%TD*%
D14*
%TO.C,D48*%
X271780000Y-146050000D03*
D15*
X271780000Y-158750000D03*
%TD*%
D16*
%TO.C,SW2*%
X356180000Y-292250000D03*
X356180000Y-285750000D03*
X360680000Y-292250000D03*
X360680000Y-285750000D03*
%TD*%
D14*
%TO.C,D38*%
X290830000Y-184150000D03*
D15*
X290830000Y-196850000D03*
%TD*%
D14*
%TO.C,D55*%
X252730000Y-201930000D03*
D15*
X252730000Y-214630000D03*
%TD*%
D16*
%TO.C,SW63*%
X241300000Y-177800000D03*
X241300000Y-171300000D03*
X245800000Y-177800000D03*
X245800000Y-171300000D03*
%TD*%
%TO.C,SW28*%
X299030000Y-255270000D03*
X299030000Y-248770000D03*
X303530000Y-255270000D03*
X303530000Y-248770000D03*
%TD*%
D14*
%TO.C,D7*%
X367030000Y-165100000D03*
D15*
X367030000Y-177800000D03*
%TD*%
D16*
%TO.C,SW64*%
X226060000Y-171450000D03*
X226060000Y-164950000D03*
X230560000Y-171450000D03*
X230560000Y-164950000D03*
%TD*%
D14*
%TO.C,D13*%
X347980000Y-203200000D03*
D15*
X347980000Y-215900000D03*
%TD*%
D16*
%TO.C,SW33*%
X299030000Y-158750000D03*
X299030000Y-152250000D03*
X303530000Y-158750000D03*
X303530000Y-152250000D03*
%TD*%
D14*
%TO.C,D11*%
X347980000Y-242570000D03*
D15*
X347980000Y-255270000D03*
%TD*%
D16*
%TO.C,SW21*%
X318080000Y-234950000D03*
X318080000Y-228450000D03*
X322580000Y-234950000D03*
X322580000Y-228450000D03*
%TD*%
%TO.C,SW41*%
X279980000Y-158750000D03*
X279980000Y-152250000D03*
X284480000Y-158750000D03*
X284480000Y-152250000D03*
%TD*%
D14*
%TO.C,D10*%
X347980000Y-261620000D03*
D15*
X347980000Y-274320000D03*
%TD*%
D14*
%TO.C,D14*%
X347980000Y-184150000D03*
D15*
X347980000Y-196850000D03*
%TD*%
D16*
%TO.C,SW47*%
X260930000Y-196850000D03*
X260930000Y-190350000D03*
X265430000Y-196850000D03*
X265430000Y-190350000D03*
%TD*%
%TO.C,SW11*%
X337130000Y-274320000D03*
X337130000Y-267820000D03*
X341630000Y-274320000D03*
X341630000Y-267820000D03*
%TD*%
D14*
%TO.C,D41*%
X271780000Y-279400000D03*
D15*
X271780000Y-292100000D03*
%TD*%
D20*
%TO.C,REF\u002A\u002A*%
X372110000Y-143510000D03*
%TD*%
D16*
%TO.C,SW60*%
X240610000Y-234950000D03*
X240610000Y-228450000D03*
X245110000Y-234950000D03*
X245110000Y-228450000D03*
%TD*%
D14*
%TO.C,D1*%
X367030000Y-279400000D03*
D15*
X367030000Y-292100000D03*
%TD*%
D14*
%TO.C,D30*%
X309880000Y-184150000D03*
D15*
X309880000Y-196850000D03*
%TD*%
D14*
%TO.C,D5*%
X367030000Y-203200000D03*
D15*
X367030000Y-215900000D03*
%TD*%
D16*
%TO.C,SW27*%
X299030000Y-273050000D03*
X299030000Y-266550000D03*
X303530000Y-273050000D03*
X303530000Y-266550000D03*
%TD*%
D14*
%TO.C,D18*%
X328930000Y-261620000D03*
D15*
X328930000Y-274320000D03*
%TD*%
D16*
%TO.C,SW23*%
X318080000Y-196850000D03*
X318080000Y-190350000D03*
X322580000Y-196850000D03*
X322580000Y-190350000D03*
%TD*%
D14*
%TO.C,D62*%
X252730000Y-166370000D03*
D15*
X252730000Y-179070000D03*
%TD*%
D18*
%TO.C,R9*%
X347980000Y-352030000D03*
D19*
X340360000Y-352030000D03*
%TD*%
D14*
%TO.C,D25*%
X309880000Y-279400000D03*
D15*
X309880000Y-292100000D03*
%TD*%
D14*
%TO.C,D39*%
X290830000Y-165100000D03*
D15*
X290830000Y-177800000D03*
%TD*%
D16*
%TO.C,SW58*%
X226350000Y-285190000D03*
X226350000Y-278690000D03*
X230850000Y-285190000D03*
X230850000Y-278690000D03*
%TD*%
D14*
%TO.C,D19*%
X328930000Y-242570000D03*
D15*
X328930000Y-255270000D03*
%TD*%
D14*
%TO.C,D32*%
X309880000Y-146050000D03*
D15*
X309880000Y-158750000D03*
%TD*%
D16*
%TO.C,SW22*%
X318080000Y-215900000D03*
X318080000Y-209400000D03*
X322580000Y-215900000D03*
X322580000Y-209400000D03*
%TD*%
D23*
%TO.C,SW67*%
X235240000Y-351790000D03*
X227040000Y-351790000D03*
D24*
X233140000Y-351790000D03*
D25*
X231140000Y-351790000D03*
X229140000Y-351790000D03*
%TD*%
D16*
%TO.C,SW49*%
X256830000Y-159460000D03*
X256830000Y-152960000D03*
X261330000Y-159460000D03*
X261330000Y-152960000D03*
%TD*%
D20*
%TO.C,REF\u002A\u002A*%
X370840000Y-353060000D03*
%TD*%
D18*
%TO.C,R7*%
X340360000Y-347980000D03*
D19*
X347980000Y-347980000D03*
%TD*%
D16*
%TO.C,SW19*%
X318080000Y-273050000D03*
X318080000Y-266550000D03*
X322580000Y-273050000D03*
X322580000Y-266550000D03*
%TD*%
D14*
%TO.C,D17*%
X328930000Y-279400000D03*
D15*
X328930000Y-292100000D03*
%TD*%
D16*
%TO.C,SW40*%
X279980000Y-177800000D03*
X279980000Y-171300000D03*
X284480000Y-177800000D03*
X284480000Y-171300000D03*
%TD*%
%TO.C,SW17*%
X337130000Y-158750000D03*
X337130000Y-152250000D03*
X341630000Y-158750000D03*
X341630000Y-152250000D03*
%TD*%
D14*
%TO.C,D42*%
X271780000Y-261620000D03*
D15*
X271780000Y-274320000D03*
%TD*%
D14*
%TO.C,D33*%
X290830000Y-279400000D03*
D15*
X290830000Y-292100000D03*
%TD*%
D18*
%TO.C,R10*%
X234950000Y-344170000D03*
D19*
X227330000Y-344170000D03*
%TD*%
D14*
%TO.C,D54*%
X219710000Y-226060000D03*
D15*
X232410000Y-226060000D03*
%TD*%
D16*
%TO.C,SW51*%
X241590000Y-273050000D03*
X241590000Y-266550000D03*
X246090000Y-273050000D03*
X246090000Y-266550000D03*
%TD*%
D14*
%TO.C,D60*%
X234950000Y-199390000D03*
D15*
X234950000Y-212090000D03*
%TD*%
D16*
%TO.C,SW12*%
X337130000Y-255270000D03*
X337130000Y-248770000D03*
X341630000Y-255270000D03*
X341630000Y-248770000D03*
%TD*%
D14*
%TO.C,D57*%
X234950000Y-276860000D03*
D15*
X234950000Y-289560000D03*
%TD*%
D16*
%TO.C,SW53*%
X251460000Y-245110000D03*
X251460000Y-238610000D03*
X255960000Y-245110000D03*
X255960000Y-238610000D03*
%TD*%
%TO.C,SW24*%
X318080000Y-177800000D03*
X318080000Y-171300000D03*
X322580000Y-177800000D03*
X322580000Y-171300000D03*
%TD*%
%TO.C,SW50*%
X241590000Y-289000000D03*
X241590000Y-282500000D03*
X246090000Y-289000000D03*
X246090000Y-282500000D03*
%TD*%
%TO.C,SW9*%
X356180000Y-156210000D03*
X356180000Y-149710000D03*
X360680000Y-156210000D03*
X360680000Y-149710000D03*
%TD*%
D14*
%TO.C,D51*%
X219710000Y-246380000D03*
D15*
X232410000Y-246380000D03*
%TD*%
D16*
%TO.C,SW42*%
X260640000Y-289000000D03*
X260640000Y-282500000D03*
X265140000Y-289000000D03*
X265140000Y-282500000D03*
%TD*%
D14*
%TO.C,D52*%
X219710000Y-236220000D03*
D15*
X232410000Y-236220000D03*
%TD*%
D16*
%TO.C,SW16*%
X337130000Y-177800000D03*
X337130000Y-171300000D03*
X341630000Y-177800000D03*
X341630000Y-171300000D03*
%TD*%
D14*
%TO.C,D58*%
X234950000Y-256540000D03*
D15*
X234950000Y-269240000D03*
%TD*%
D16*
%TO.C,SW20*%
X318080000Y-255270000D03*
X318080000Y-248770000D03*
X322580000Y-255270000D03*
X322580000Y-248770000D03*
%TD*%
%TO.C,SW13*%
X337130000Y-236220000D03*
X337130000Y-229720000D03*
X341630000Y-236220000D03*
X341630000Y-229720000D03*
%TD*%
D14*
%TO.C,D23*%
X328930000Y-165100000D03*
D15*
X328930000Y-177800000D03*
%TD*%
D16*
%TO.C,SW56*%
X241300000Y-214630000D03*
X241300000Y-208130000D03*
X245800000Y-214630000D03*
X245800000Y-208130000D03*
%TD*%
D14*
%TO.C,D46*%
X271780000Y-184150000D03*
D15*
X271780000Y-196850000D03*
%TD*%
D16*
%TO.C,SW18*%
X318080000Y-289000000D03*
X318080000Y-282500000D03*
X322580000Y-289000000D03*
X322580000Y-282500000D03*
%TD*%
%TO.C,SW29*%
X299030000Y-234950000D03*
X299030000Y-228450000D03*
X303530000Y-234950000D03*
X303530000Y-228450000D03*
%TD*%
%TO.C,SW37*%
X279980000Y-234950000D03*
X279980000Y-228450000D03*
X284480000Y-234950000D03*
X284480000Y-228450000D03*
%TD*%
D17*
%TO.C,LS2*%
X341630000Y-341630000D03*
X346710000Y-341630000D03*
%TD*%
D14*
%TO.C,D9*%
X347980000Y-279400000D03*
D15*
X347980000Y-292100000D03*
%TD*%
D16*
%TO.C,SW6*%
X356180000Y-215900000D03*
X356180000Y-209400000D03*
X360680000Y-215900000D03*
X360680000Y-209400000D03*
%TD*%
D20*
%TO.C,REF\u002A\u002A*%
X215900000Y-353060000D03*
%TD*%
D16*
%TO.C,SW61*%
X226060000Y-209550000D03*
X226060000Y-203050000D03*
X230560000Y-209550000D03*
X230560000Y-203050000D03*
%TD*%
D14*
%TO.C,D20*%
X328930000Y-223520000D03*
D15*
X328930000Y-236220000D03*
%TD*%
D16*
%TO.C,SW34*%
X279980000Y-289000000D03*
X279980000Y-282500000D03*
X284480000Y-289000000D03*
X284480000Y-282500000D03*
%TD*%
%TO.C,SW62*%
X226060000Y-190500000D03*
X226060000Y-184000000D03*
X230560000Y-190500000D03*
X230560000Y-184000000D03*
%TD*%
%TO.C,SW15*%
X337130000Y-196850000D03*
X337130000Y-190350000D03*
X341630000Y-196850000D03*
X341630000Y-190350000D03*
%TD*%
%TO.C,SW30*%
X299030000Y-215900000D03*
X299030000Y-209400000D03*
X303530000Y-215900000D03*
X303530000Y-209400000D03*
%TD*%
D14*
%TO.C,D28*%
X309880000Y-223520000D03*
D15*
X309880000Y-236220000D03*
%TD*%
D16*
%TO.C,SW66*%
X318770000Y-352500000D03*
X318770000Y-346000000D03*
X323270000Y-352500000D03*
X323270000Y-346000000D03*
%TD*%
D14*
%TO.C,D27*%
X309880000Y-242570000D03*
D15*
X309880000Y-255270000D03*
%TD*%
D17*
%TO.C,UDA1334Breakout1*%
X264160000Y-339090000D03*
X248920000Y-339090000D03*
X254000000Y-339090000D03*
X254000000Y-318770000D03*
X256540000Y-339090000D03*
X261620000Y-339090000D03*
X251460000Y-339090000D03*
X261620000Y-318770000D03*
X256540000Y-318770000D03*
X246380000Y-339090000D03*
X266700000Y-318770000D03*
X259080000Y-318770000D03*
X264160000Y-318770000D03*
X266700000Y-339090000D03*
X259080000Y-339090000D03*
%TD*%
%TO.C,ePulseFeather1*%
X287020000Y-317625000D03*
X287020000Y-348105000D03*
X287020000Y-320165000D03*
X287020000Y-350645000D03*
X287020000Y-330325000D03*
X287020000Y-327785000D03*
X307340000Y-332865000D03*
X307340000Y-335405000D03*
X307340000Y-320165000D03*
X307340000Y-325245000D03*
X287020000Y-325245000D03*
X287020000Y-322705000D03*
X287020000Y-315085000D03*
X307340000Y-317625000D03*
X307340000Y-315085000D03*
X287020000Y-340485000D03*
X287020000Y-343025000D03*
X307340000Y-330325000D03*
X307340000Y-322705000D03*
X307340000Y-327785000D03*
X287020000Y-337945000D03*
X287020000Y-332865000D03*
X287020000Y-335405000D03*
X307340000Y-343025000D03*
X307340000Y-340485000D03*
X287020000Y-345565000D03*
X287020000Y-353185000D03*
X307340000Y-337945000D03*
%TD*%
M02*
