M48
; DRILL file {KiCad 7.0.8} date 2023 November 23, Thursday 11:52:29
; FORMAT={-:-/ absolute / inch / decimal}
; #@! TF.CreationDate,2023-11-23T11:52:29-06:00
; #@! TF.GenerationSoftware,Kicad,Pcbnew,7.0.8
; #@! TF.FileFunction,Plated,1,2,PTH
FMAT,2
INCH
; #@! TA.AperFunction,Plated,PTH,ViaDrill
T1C0.0157
; #@! TA.AperFunction,Plated,PTH,ComponentDrill
T2C0.0157
; #@! TA.AperFunction,Plated,PTH,ComponentDrill
T3C0.0300
; #@! TA.AperFunction,Plated,PTH,ComponentDrill
T4C0.0315
; #@! TA.AperFunction,Plated,PTH,ComponentDrill
T5C0.0354
; #@! TA.AperFunction,Plated,PTH,ComponentDrill
T6C0.0394
; #@! TA.AperFunction,Plated,PTH,ComponentDrill
T7C0.0433
; #@! TA.AperFunction,Plated,PTH,ComponentDrill
T8C0.0591
; #@! TA.AperFunction,Plated,PTH,ComponentDrill
T9C0.0866
%
G90
G05
T1
X10.7Y-13.2
X10.95Y-11.85
X11.05Y-12.95
X11.05Y-13.4
X11.1Y-11.85
X12.0Y-12.0
X14.55Y-7.25
T3
X9.7Y-13.35
X9.8Y-13.35
X9.9Y-13.35
X10.0Y-12.55
X10.0Y-13.35
X10.1Y-12.55
X10.1Y-13.35
X10.2Y-12.55
X10.2Y-13.35
X10.3Y-12.55
X10.3Y-13.35
X10.4Y-12.55
X10.4Y-13.35
X10.5Y-12.55
X10.5Y-13.35
X10.7Y-13.75
X10.9Y-13.75
X11.3Y-12.4049
X11.3Y-12.5049
X11.3Y-12.6049
X11.3Y-12.7049
X11.3Y-12.8049
X11.3Y-12.9049
X11.3Y-13.0049
X11.3Y-13.1049
X11.3Y-13.2049
X11.3Y-13.3049
X11.3Y-13.4049
X11.3Y-13.5049
X11.3Y-13.6049
X11.3Y-13.7049
X11.3Y-13.8049
X11.3Y-13.9049
X12.1Y-12.4049
X12.1Y-12.5049
X12.1Y-12.6049
X12.1Y-12.7049
X12.1Y-12.8049
X12.1Y-12.9049
X12.1Y-13.0049
X12.1Y-13.1049
X12.1Y-13.2049
X12.1Y-13.3049
X12.1Y-13.4049
X12.1Y-13.5049
X13.45Y-13.45
X13.65Y-13.45
T4
X8.95Y-13.55
X9.0213Y-13.85
X9.1Y-13.85
X9.1787Y-13.85
X9.25Y-13.55
X10.15Y-13.75
X10.15Y-13.9
X10.45Y-13.75
X10.45Y-13.9
X12.45Y-12.2
X12.45Y-12.65
X12.45Y-12.8
X12.75Y-12.2
X12.75Y-12.65
X12.75Y-12.8
X13.4Y-13.7
X13.4Y-13.8594
X13.7Y-13.7
X13.7Y-13.8594
T5
X8.65Y-8.9
X8.65Y-9.1
X8.65Y-9.3
X8.65Y-9.5
X8.65Y-9.7
X9.1Y-5.8
X9.1Y-6.3
X9.15Y-8.9
X9.15Y-9.1
X9.15Y-9.3
X9.15Y-9.5
X9.15Y-9.7
X9.25Y-6.5
X9.25Y-7.0
X9.25Y-7.15
X9.25Y-7.65
X9.25Y-7.85
X9.25Y-8.35
X9.25Y-10.1
X9.25Y-10.6
X9.25Y-10.9
X9.25Y-11.4
X9.95Y-6.55
X9.95Y-7.05
X9.95Y-7.2
X9.95Y-7.7
X9.95Y-7.95
X9.95Y-8.45
X9.95Y-10.3
X9.95Y-10.8
X9.95Y-11.0
X9.95Y-11.5
X10.7Y-5.75
X10.7Y-6.25
X10.7Y-6.5
X10.7Y-7.0
X10.7Y-7.25
X10.7Y-7.75
X10.7Y-8.0
X10.7Y-8.5
X10.7Y-8.8
X10.7Y-9.3
X10.7Y-9.55
X10.7Y-10.05
X10.7Y-10.3
X10.7Y-10.8
X10.7Y-11.0
X10.7Y-11.5
X11.45Y-5.75
X11.45Y-6.25
X11.45Y-6.5
X11.45Y-7.0
X11.45Y-7.25
X11.45Y-7.75
X11.45Y-8.0
X11.45Y-8.5
X11.45Y-8.8
X11.45Y-9.3
X11.45Y-9.55
X11.45Y-10.05
X11.45Y-10.3
X11.45Y-10.8
X11.45Y-11.0
X11.45Y-11.5
X12.2Y-5.75
X12.2Y-6.25
X12.2Y-6.5
X12.2Y-7.0
X12.2Y-7.25
X12.2Y-7.75
X12.2Y-8.0
X12.2Y-8.5
X12.2Y-8.8
X12.2Y-9.3
X12.2Y-9.55
X12.2Y-10.05
X12.2Y-10.3
X12.2Y-10.8
X12.2Y-11.0
X12.2Y-11.5
X12.95Y-5.75
X12.95Y-6.25
X12.95Y-6.5
X12.95Y-7.0
X12.95Y-7.25
X12.95Y-7.75
X12.95Y-8.0
X12.95Y-8.5
X12.95Y-8.8
X12.95Y-9.3
X12.95Y-9.55
X12.95Y-10.05
X12.95Y-10.3
X12.95Y-10.8
X12.95Y-11.0
X12.95Y-11.5
X13.7Y-5.75
X13.7Y-6.25
X13.7Y-6.5
X13.7Y-7.0
X13.7Y-7.25
X13.7Y-7.75
X13.7Y-8.0
X13.7Y-8.5
X13.7Y-8.8
X13.7Y-9.3
X13.7Y-9.55
X13.7Y-10.05
X13.7Y-10.3
X13.7Y-10.8
X13.7Y-11.0
X13.7Y-11.5
X14.45Y-6.5
X14.45Y-7.0
X14.45Y-7.25
X14.45Y-7.75
X14.45Y-8.0
X14.45Y-8.5
X14.45Y-8.8
X14.45Y-9.3
X14.45Y-9.55
X14.45Y-10.05
X14.45Y-10.3
X14.45Y-10.8
X14.45Y-11.0
X14.45Y-11.5
X14.45Y-5.75
X14.45Y-6.25
T6
X9.9016Y-11.7244
X9.9016Y-12.2953
X10.0Y-12.2953
X10.0984Y-11.7244
X10.0984Y-12.2953
T7
X8.9Y-6.4941
X8.9Y-6.75
X8.9Y-7.2441
X8.9Y-7.5
X8.9Y-7.9941
X8.9Y-8.25
X8.9Y-10.25
X8.9Y-10.5059
X8.9114Y-10.972
X8.9114Y-11.228
X9.0772Y-6.4941
X9.0772Y-6.75
X9.0772Y-7.2441
X9.0772Y-7.5
X9.0772Y-7.9941
X9.0772Y-8.25
X9.0772Y-10.25
X9.0772Y-10.5059
X9.0886Y-10.972
X9.0886Y-11.228
X9.4114Y-6.022
X9.4114Y-6.278
X9.4728Y-8.9941
X9.4728Y-9.25
X9.5Y-6.7441
X9.5Y-7.0
X9.5Y-7.4941
X9.5Y-7.75
X9.5Y-8.1941
X9.5Y-8.45
X9.5114Y-9.822
X9.5114Y-10.078
X9.5114Y-10.4941
X9.5114Y-10.75
X9.5114Y-11.122
X9.5114Y-11.378
X9.5886Y-6.022
X9.5886Y-6.278
X9.65Y-8.9941
X9.65Y-9.25
X9.6772Y-6.7441
X9.6772Y-7.0
X9.6772Y-7.4941
X9.6772Y-7.75
X9.6772Y-8.1941
X9.6772Y-8.45
X9.6886Y-9.822
X9.6886Y-10.078
X9.6886Y-10.4941
X9.6886Y-10.75
X9.6886Y-11.122
X9.6886Y-11.378
X9.9Y-8.5941
X9.9Y-8.85
X9.9Y-8.9941
X9.9Y-9.25
X9.9Y-9.3941
X9.9Y-9.65
X10.0772Y-8.5941
X10.0772Y-8.85
X10.0772Y-8.9941
X10.0772Y-9.25
X10.0772Y-9.3941
X10.0772Y-9.65
X10.1114Y-6.022
X10.1114Y-6.278
X10.2614Y-10.4941
X10.2614Y-10.75
X10.2614Y-11.122
X10.2614Y-11.378
X10.2728Y-6.7441
X10.2728Y-7.0
X10.2728Y-7.4941
X10.2728Y-7.75
X10.2728Y-8.1941
X10.2728Y-8.45
X10.2728Y-9.7941
X10.2728Y-10.05
X10.2886Y-6.022
X10.2886Y-6.278
X10.3Y-8.9941
X10.3Y-9.25
X10.4386Y-10.4941
X10.4386Y-10.75
X10.4386Y-11.122
X10.4386Y-11.378
X10.45Y-6.7441
X10.45Y-7.0
X10.45Y-7.4941
X10.45Y-7.75
X10.45Y-8.1941
X10.45Y-8.45
X10.45Y-9.7941
X10.45Y-10.05
X10.4772Y-8.9941
X10.4772Y-9.25
X11.0228Y-5.9941
X11.0228Y-6.25
X11.0228Y-6.7441
X11.0228Y-7.0
X11.0228Y-7.4941
X11.0228Y-7.75
X11.0228Y-8.2441
X11.0228Y-8.5
X11.0228Y-8.9941
X11.0228Y-9.25
X11.0228Y-9.7941
X11.0228Y-10.05
X11.0228Y-10.4941
X11.0228Y-10.75
X11.0228Y-11.122
X11.0228Y-11.378
X11.2Y-5.9941
X11.2Y-6.25
X11.2Y-6.7441
X11.2Y-7.0
X11.2Y-7.4941
X11.2Y-7.75
X11.2Y-8.2441
X11.2Y-8.5
X11.2Y-8.9941
X11.2Y-9.25
X11.2Y-9.7941
X11.2Y-10.05
X11.2Y-10.4941
X11.2Y-10.75
X11.2Y-11.122
X11.2Y-11.378
X11.7728Y-5.9941
X11.7728Y-6.25
X11.7728Y-6.7441
X11.7728Y-7.0
X11.7728Y-7.4941
X11.7728Y-7.75
X11.7728Y-8.2441
X11.7728Y-8.5
X11.7728Y-8.9941
X11.7728Y-9.25
X11.7728Y-9.7941
X11.7728Y-10.05
X11.7728Y-10.4941
X11.7728Y-10.75
X11.7728Y-11.122
X11.7728Y-11.378
X11.95Y-5.9941
X11.95Y-6.25
X11.95Y-6.7441
X11.95Y-7.0
X11.95Y-7.4941
X11.95Y-7.75
X11.95Y-8.2441
X11.95Y-8.5
X11.95Y-8.9941
X11.95Y-9.25
X11.95Y-9.7941
X11.95Y-10.05
X11.95Y-10.4941
X11.95Y-10.75
X11.95Y-11.122
X11.95Y-11.378
X12.5228Y-5.9941
X12.5228Y-6.25
X12.5228Y-6.7441
X12.5228Y-7.0
X12.5228Y-7.4941
X12.5228Y-7.75
X12.5228Y-8.2441
X12.5228Y-8.5
X12.5228Y-8.9941
X12.5228Y-9.25
X12.5228Y-9.7941
X12.5228Y-10.05
X12.5228Y-10.4941
X12.5228Y-10.75
X12.5228Y-11.122
X12.5228Y-11.378
X12.55Y-13.622
X12.55Y-13.878
X12.7Y-5.9941
X12.7Y-6.25
X12.7Y-6.7441
X12.7Y-7.0
X12.7Y-7.4941
X12.7Y-7.75
X12.7Y-8.2441
X12.7Y-8.5
X12.7Y-8.9941
X12.7Y-9.25
X12.7Y-9.7941
X12.7Y-10.05
X12.7Y-10.4941
X12.7Y-10.75
X12.7Y-11.122
X12.7Y-11.378
X12.7272Y-13.622
X12.7272Y-13.878
X13.2728Y-5.9941
X13.2728Y-6.25
X13.2728Y-6.7441
X13.2728Y-7.0
X13.2728Y-7.4941
X13.2728Y-7.75
X13.2728Y-8.2441
X13.2728Y-8.5
X13.2728Y-9.0441
X13.2728Y-9.3
X13.2728Y-9.7941
X13.2728Y-10.05
X13.2728Y-10.5441
X13.2728Y-10.8
X13.2728Y-11.2441
X13.2728Y-11.5
X13.45Y-5.9941
X13.45Y-6.25
X13.45Y-6.7441
X13.45Y-7.0
X13.45Y-7.4941
X13.45Y-7.75
X13.45Y-8.2441
X13.45Y-8.5
X13.45Y-9.0441
X13.45Y-9.3
X13.45Y-9.7941
X13.45Y-10.05
X13.45Y-10.5441
X13.45Y-10.8
X13.45Y-11.2441
X13.45Y-11.5
X14.0228Y-5.8941
X14.0228Y-6.15
X14.0228Y-6.7441
X14.0228Y-7.0
X14.0228Y-7.4941
X14.0228Y-7.75
X14.0228Y-8.2441
X14.0228Y-8.5
X14.0228Y-9.0441
X14.0228Y-9.3
X14.0228Y-9.7941
X14.0228Y-10.05
X14.0228Y-10.5441
X14.0228Y-10.8
X14.0228Y-11.25
X14.0228Y-11.5059
X14.2Y-5.8941
X14.2Y-6.15
X14.2Y-6.7441
X14.2Y-7.0
X14.2Y-7.4941
X14.2Y-7.75
X14.2Y-8.2441
X14.2Y-8.5
X14.2Y-9.0441
X14.2Y-9.3
X14.2Y-9.7941
X14.2Y-10.05
X14.2Y-10.5441
X14.2Y-10.8
X14.2Y-11.25
X14.2Y-11.5059
T8
X8.9386Y-13.85
X9.2614Y-13.85
T9
X9.7795Y-12.0
X10.2205Y-12.0
T2
G00X9.5031Y-13.635
M15
G01X9.5031Y-13.6744
M16
G05
G00X9.6803Y-13.8516
M15
G01X9.7197Y-13.8516
M16
G05
G00X9.8969Y-13.6744
M15
G01X9.8969Y-13.635
M16
G05
T4
G00X9.6016Y-13.6409
M15
G01X9.6016Y-13.6685
M16
G05
G00X9.7984Y-13.6685
M15
G01X9.7984Y-13.6409
M16
G05
T0
M30
